<?xml version="1.0" encoding="utf-8"?>
<!-- Generator: Adobe Illustrator 18.0.0, SVG Export Plug-In . SVG Version: 6.00 Build 0)  -->
<!DOCTYPE svg PUBLIC "-//W3C//DTD SVG 1.1//EN" "http://www.w3.org/Graphics/SVG/1.1/DTD/svg11.dtd">
<svg version="1.1" id="레이어_1" xmlns="http://www.w3.org/2000/svg" xmlns:xlink="http://www.w3.org/1999/xlink" x="0px"
	 y="0px" viewBox="0 0 102 102" enable-background="new 0 0 102 102" xml:space="preserve">
<g>
	<g>
		<path fill="#FFFFFF" d="M102.7,102.7c-34.1,0-68.2,0-102.3,0c0-34.1,0-68.2,0-102.3c34.1,0,68.2,0,102.3,0
			C102.7,34.5,102.7,68.6,102.7,102.7z M51.6,101.2c26.9,0,48.9-22.1,48.9-49c0-26.9-22.1-48.9-49-48.9c-26.9,0-48.9,22.1-48.9,49
			C2.6,79.3,24.6,101.2,51.6,101.2z"/>
		<path d="M51.6,101.2c-26.9,0-49-21.9-49-48.9c0-26.9,21.9-49,48.9-49c26.9,0,49,21.9,49,48.9C100.5,79.1,78.5,101.2,51.6,101.2z
			 M80.5,52.2C80.5,36.6,68,24,52.3,24C36.6,23.9,24,36.5,24,52.3c0,15.7,12.6,28.3,28.2,28.3C67.9,80.6,80.5,68,80.5,52.2z"/>
		<path fill="#FFFFFF" d="M80.5,52.2c0,15.7-12.6,28.3-28.4,28.3C36.5,80.5,24,67.9,24,52.3C24,36.5,36.6,23.9,52.3,24
			C68,24,80.5,36.6,80.5,52.2z"/>
	</g>
</g>
</svg>
