<?xml version="1.0" encoding="utf-8"?>
<!-- Generator: Adobe Illustrator 18.0.0, SVG Export Plug-In . SVG Version: 6.00 Build 0)  -->
<!DOCTYPE svg PUBLIC "-//W3C//DTD SVG 1.1//EN" "http://www.w3.org/Graphics/SVG/1.1/DTD/svg11.dtd">
<svg version="1.1" id="레이어_1" xmlns="http://www.w3.org/2000/svg" xmlns:xlink="http://www.w3.org/1999/xlink" x="0px"
	 y="0px" viewBox="0 0 102 102" enable-background="new 0 0 102 102" xml:space="preserve">
<g>
	<g>
		<path fill="#FFFFFF" d="M102.7,102.7c-34.1,0-68.2,0-102.3,0c0-34.1,0-68.2,0-102.3c34.1,0,68.2,0,102.3,0
			C102.7,34.5,102.7,68.6,102.7,102.7z M79.7,25.6c-17.8,18.1-35.5,36-53.3,54c-0.9-0.9-1.7-1.8-2.6-2.7
			c17.7-18,35.4-35.9,53.1-53.8c-1-1.1-1.8-2-2.7-3C56.4,38.1,38.7,56.1,21,74c-0.9-0.9-1.8-1.6-2.7-2.4c17.8-18.1,35.5-36,53.2-54
			c-1.1-1.1-2-1.9-3-2.8C49.9,33.7,31.3,52.6,13,71.1c6.5,6.8,12.8,13.4,19.2,20.1c18.9-19.1,37.5-38,55.9-56.7
			c-1-1.1-1.8-2.1-2.7-3.1c-17.8,18-35.5,36-53.2,53.9c-1.1-1-2-1.9-3-2.9c17.8-18,35.4-35.9,53-53.8C81.4,27.5,80.6,26.6,79.7,25.6
			z M91.6,32c2.1-2.1,4-3.8,5.7-5.6c2.9-3,2.8-7.5-0.1-10.5c-3.2-3.2-6.4-6.5-9.7-9.6C84.8,3.6,80.2,3.5,77.3,6
			c-2,1.8-4,3.7-5.6,5.2C78.5,18.3,85.1,25.1,91.6,32z M29.1,94.4c-6.1-6.4-12.5-13-19-19.7c-0.7,5.2-1.4,10.1-2.1,15.1
			c-0.1,0.4,0.3,1,0.7,1.4c1.6,1.6,3.2,3.3,4.9,4.8c0.4,0.3,1,0.7,1.4,0.6C20,95.8,24.9,95,29.1,94.4z M7.7,92.5c0,1.7,0,2.9,0,4.3
			c1.4,0,2.7,0,3.7,0C10.3,95.5,9.2,94.1,7.7,92.5z"/>
		<path d="M79.7,25.6c0.9,1,1.7,1.9,2.6,3C64.7,46.4,47,64.3,29.3,82.3c1,1,1.9,1.9,3,2.9c17.7-18,35.4-35.9,53.2-53.9
			c0.9,1,1.7,2,2.7,3.1C69.8,53.2,51.1,72.1,32.3,91.2C25.8,84.5,19.5,77.9,13,71.1c18.2-18.5,36.8-37.4,55.6-56.4
			c1,0.9,1.9,1.8,3,2.8c-17.7,18-35.4,35.9-53.2,54c0.9,0.8,1.7,1.6,2.7,2.4c17.7-17.9,35.3-35.8,53.2-53.9c0.9,1,1.7,1.9,2.7,3
			C59.3,41,41.6,58.9,23.8,76.9c0.9,1,1.7,1.8,2.6,2.7C44.2,61.6,61.9,43.7,79.7,25.6z"/>
		<path d="M91.6,32c-6.6-6.8-13.1-13.6-19.9-20.8c1.6-1.5,3.6-3.4,5.6-5.2c2.9-2.5,7.5-2.4,10.3,0.3c3.3,3.1,6.5,6.3,9.7,9.6
			c2.9,3,2.9,7.4,0.1,10.5C95.6,28.2,93.7,29.9,91.6,32z"/>
		<path d="M29.1,94.4c-4.2,0.7-9.1,1.5-14.1,2.2c-0.4,0.1-1-0.3-1.4-0.6c-1.7-1.6-3.3-3.2-4.9-4.8c-0.3-0.4-0.7-0.9-0.7-1.4
			c0.6-5,1.4-9.9,2.1-15.1C16.7,81.4,23,88,29.1,94.4z"/>
		<path d="M7.7,92.5c1.4,1.6,2.6,3,3.7,4.3c-1,0-2.3,0-3.7,0C7.7,95.4,7.7,94.2,7.7,92.5z"/>
	</g>
</g>
</svg>
