<?xml version="1.0" encoding="utf-8"?>
<!-- Generator: Adobe Illustrator 18.0.0, SVG Export Plug-In . SVG Version: 6.00 Build 0)  -->
<!DOCTYPE svg PUBLIC "-//W3C//DTD SVG 1.1//EN" "http://www.w3.org/Graphics/SVG/1.1/DTD/svg11.dtd">
<svg version="1.1" id="레이어_1" xmlns="http://www.w3.org/2000/svg" xmlns:xlink="http://www.w3.org/1999/xlink" x="0px"
	 y="0px" viewBox="0 0 102 102" enable-background="new 0 0 102 102" xml:space="preserve">
<g>
	<g>
		<path fill="#FFFFFF" d="M0.3,76.8c0-25.5,0-51,0-76.5c34.1,0,68.2,0,102.4,0c0,34.1,0,68.2,0,102.4c-34.1,0-68.2,0-102.4,0
			c0-6.7,0-13.4,0-20c0.6,1.9,1.2,3.8,2,6.3c0.7-0.9,1-1.5,1.4-1.9c2.7-2.8,5.5-5.5,8.3-8.2c3.7-3.6,6.7-3.5,10.4,0.1
			c0.5,0.5,0.9,1,1.4,1.5c3.1,3.5,3.1,6.4-0.1,9.8c-2.7,2.9-5.6,5.7-8.5,8.5c-0.4,0.4-0.7,0.8-1.1,1.2c6.6,2.5,12.9,2.1,18.8-1.3
			c7.7-4.6,11.8-11.3,10.8-20.6c-0.1-0.6,0-1.4,0.3-1.9c3.9-6.2,7.8-12.4,11.8-18.6c0.7-1.1,1.7-2.1,2.7-2.9
			c5.1-3.6,10.3-7.1,15.4-10.6c0.5-0.4,1.4-0.6,2-0.4c7.5,2.4,18.3-1.4,23.2-9.8c3.8-6.4,4.2-13.1,1.2-20.5c-3,3.1-5.8,6.1-8.7,9
			c-4.9,4.9-8,4.8-12.6-0.4c-0.2-0.2-0.4-0.5-0.6-0.7c-2.5-3.2-2.5-5.7,0.1-8.8c0.7-0.8,1.5-1.6,2.3-2.4c2.6-2.6,5.1-5.1,7.9-7.8
			c-6.6-2.5-12.6-2-18.6,1c-8,4.1-12.7,13.9-11.2,20.7c0.1,0.6,0,1.5-0.4,2c-3.8,6.2-7.7,12.3-11.7,18.4c-0.8,1.2-1.9,2.4-3.1,3.2
			c-4.9,3.5-10,6.9-15,10.3c-0.5,0.4-1.4,0.6-2,0.4C18,55.7,5.1,61.2,1.5,73.1C1.1,74.3,0.7,75.6,0.3,76.8z"/>
		<path d="M0.3,76.8c0.4-1.3,0.7-2.5,1.1-3.8C5.1,61.2,18,55.7,26.8,58.6c0.6,0.2,1.4-0.1,2-0.4c5-3.4,10-6.8,15-10.3
			c1.2-0.9,2.3-2,3.1-3.2c4-6.1,7.8-12.3,11.7-18.4c0.3-0.6,0.5-1.4,0.4-2c-1.6-6.9,3.2-16.7,11.2-20.7c5.9-3,12-3.5,18.6-1
			c-2.7,2.7-5.3,5.2-7.9,7.8c-0.8,0.8-1.6,1.5-2.3,2.4c-2.6,3.1-2.6,5.6-0.1,8.8c0.2,0.2,0.4,0.5,0.6,0.7c4.6,5.1,7.7,5.2,12.6,0.4
			c2.9-2.9,5.6-5.8,8.7-9c3,7.4,2.5,14-1.2,20.5c-4.9,8.4-15.7,12.2-23.2,9.8c-0.6-0.2-1.5,0-2,0.4c-5.2,3.5-10.3,7-15.4,10.6
			c-1.1,0.7-2,1.8-2.7,2.9c-4,6.2-7.9,12.4-11.8,18.6c-0.3,0.5-0.4,1.3-0.3,1.9c1,9.3-3.1,16-10.8,20.6c-5.9,3.5-12.2,3.8-18.8,1.3
			c0.4-0.5,0.7-0.9,1.1-1.2c2.8-2.8,5.7-5.6,8.5-8.5c3.2-3.4,3.2-6.3,0.1-9.8c-0.4-0.5-0.9-1-1.4-1.5c-3.7-3.6-6.7-3.6-10.4-0.1
			c-2.8,2.7-5.5,5.5-8.3,8.2c-0.4,0.4-0.7,1-1.4,1.9c-0.8-2.5-1.4-4.4-2-6.3C0.3,80.7,0.3,78.8,0.3,76.8z"/>
	</g>
</g>
</svg>
