<?xml version="1.0" encoding="utf-8"?>
<!-- Generator: Adobe Illustrator 18.0.0, SVG Export Plug-In . SVG Version: 6.00 Build 0)  -->
<!DOCTYPE svg PUBLIC "-//W3C//DTD SVG 1.1//EN" "http://www.w3.org/Graphics/SVG/1.1/DTD/svg11.dtd">
<svg version="1.1" id="레이어_1" xmlns="http://www.w3.org/2000/svg" xmlns:xlink="http://www.w3.org/1999/xlink" x="0px"
	 y="0px" viewBox="0 0 102 102" enable-background="new 0 0 102 102" xml:space="preserve">
<g>
	<g>
		<path d="M28.1,7.8c24.5,0,49,0,73.4,0c-0.5,0.4-1,1-1.5,1.3c-4.1,2.4-7.1,5.5-8.6,10.1c-2.4,7.1-5,14.1-7.5,21.1
			c-1.2,3.4-2.4,6.7-3.6,10.3c7.1,0,14,0,21.2,0c-0.5,0.4-0.7,0.6-0.8,0.7c-3.3,1.8-5.2,4.5-6.4,8c-3.2,9.4-6.6,18.8-9.9,28.1
			c-1.8,5-3.9,6.6-9.2,6.6c-11.3,0-22.5,0-33.8,0c-1.6,0-3.2-0.3-4.8-0.7c-2.2-0.5-3.5-2-3.2-4.3c0.2-2.3,0.9-4.7,1.6-6.9
			c1-3.3,2.3-6.5,3.5-10c-0.9,0-1.5,0-2.2,0c-8.2,0-16.4,0.2-24.6-0.1C7.2,72,2.4,71.8,0.4,66.5c0-2,0-4.1,0-6.1
			c0.3-0.4,0.7-0.8,0.8-1.2c3.1-8.7,6.2-17.4,9.3-26.1c2-5.7,4-11.4,6.1-17c1.5-4.1,4.3-6.8,8.7-7.6C26.3,8.2,27.2,8,28.1,7.8z
			 M55.6,13C55.6,13,55.6,13,55.6,13c-7.3,0-14.6,0-22,0c-4.7,0-5.5,0.6-7,5c-4.9,13.9-9.8,27.7-14.7,41.6c-1.3,3.6,0.6,6.5,4.5,6.6
			c7.7,0.1,15.4,0,23,0c1,0,1.4-0.4,1.7-1.2c1-2.9,2.1-5.9,3.1-8.8c1.1-3.1,3.3-5.1,6.7-5.2c5.6-0.2,11.1-0.2,16.7-0.2
			c1.5,0,2.2-0.4,2.7-1.8c3.6-10.3,7.3-20.6,10.9-31c1.5-4.3,1-5-3.5-5C70.3,13,62.9,13,55.6,13z M58.7,90.2c3.7,0,7.3,0,11,0
			c6.9,0,6.4,0.4,8.7-6.2c3.1-8.9,6.3-17.8,9.5-26.8c0.9-2.5,0.5-3.1-2.2-3.1c-1.6,0-3.2,0.1-4.9,0c-1.3-0.1-1.9,0.4-2.3,1.6
			c-1,3-2,5.9-3.1,8.8c-1.4,3.8-4,6.4-8,7.2c-1.6,0.3-3.3,0.4-5,0.5c-5.1,0.1-10.2,0-15.3,0c-1,0-1.5,0.3-1.8,1.3
			c-1.4,4.2-2.9,8.4-4.5,12.5c-0.5,1.3-0.2,2.5,0.8,3.2c0.9,0.6,2.1,1,3.1,1C49.4,90.3,54,90.2,58.7,90.2z M68.4,54.2
			c-5.1,0-9.7-0.1-14.4,0.1c-0.8,0-2,0.8-2.4,1.6c-1.4,3.3-2.5,6.7-3.8,10.2c4.8,0,9.3,0.2,13.9-0.1c1.1-0.1,2.6-1.3,3.1-2.3
			C66.2,60.7,67.1,57.6,68.4,54.2z"/>
		<path fill="#FFFFFF" d="M0.4,66.5c2,5.3,6.8,5.5,11.2,5.6c8.2,0.3,16.4,0.1,24.6,0.1c0.6,0,1.3,0,2.2,0c-1.2,3.5-2.5,6.7-3.5,10
			c-0.7,2.3-1.3,4.6-1.6,6.9c-0.2,2.3,1,3.8,3.2,4.3c1.6,0.4,3.2,0.7,4.8,0.7c11.3,0.1,22.5,0.1,33.8,0c5.3,0,7.4-1.5,9.2-6.6
			c3.3-9.4,6.7-18.7,9.9-28.1c1.2-3.5,3.1-6.3,6.4-8c0.2-0.1,0.3-0.3,0.8-0.7c-7.3,0-14.1,0-21.2,0c1.3-3.6,2.4-7,3.6-10.3
			c2.5-7,5.1-14,7.5-21.1C93,14.7,96,11.5,100,9.1c0.6-0.3,1-0.9,1.5-1.3c0.1,0.5,0.3,1.1,0.3,1.6c0,28.4,0,56.7,0,85.1
			c-33.8,0-67.7,0-101.5,0C0.4,85.2,0.4,75.9,0.4,66.5z"/>
		<path fill="#FFFFFF" d="M28.1,7.8c-0.9,0.2-1.9,0.3-2.8,0.5c-4.4,0.9-7.2,3.5-8.7,7.6c-2,5.7-4,11.4-6.1,17
			c-3.1,8.7-6.2,17.4-9.3,26.1c-0.2,0.4-0.5,0.8-0.8,1.2c0-17.5,0-35,0-52.6C9.7,7.8,18.9,7.8,28.1,7.8z"/>
		<path fill="#FFFFFF" d="M55.6,13c7.4,0,14.8,0,22.1,0c4.5,0,5,0.7,3.5,5c-3.6,10.3-7.3,20.6-10.9,31c-0.5,1.5-1.3,1.8-2.7,1.8
			c-5.6,0-11.2,0-16.7,0.2c-3.3,0.1-5.5,2.1-6.7,5.2C43.1,59.1,42,62.1,41,65c-0.3,0.9-0.7,1.2-1.7,1.2c-7.7,0-15.4,0-23,0
			c-3.9,0-5.8-3-4.5-6.6c4.9-13.9,9.8-27.7,14.7-41.6c1.6-4.4,2.3-5,7-5C40.9,13,48.3,13,55.6,13C55.6,13,55.6,13,55.6,13z"/>
		<path fill="#FFFFFF" d="M58.7,90.2c-4.7,0-9.4,0.1-14,0c-1.1,0-2.3-0.4-3.1-1c-1-0.7-1.3-1.9-0.8-3.2c1.5-4.2,3-8.3,4.5-12.5
			c0.3-1,0.8-1.3,1.8-1.3c5.1,0,10.2,0.1,15.3,0c1.7,0,3.4-0.1,5-0.5c4.1-0.8,6.6-3.4,8-7.2c1.1-2.9,2.2-5.8,3.1-8.8
			c0.4-1.3,1-1.7,2.3-1.6c1.6,0.1,3.2,0,4.9,0c2.7,0,3.1,0.6,2.2,3.1c-3.2,8.9-6.3,17.8-9.5,26.8c-2.3,6.5-1.8,6.2-8.7,6.2
			C66,90.2,62.4,90.2,58.7,90.2z"/>
		<path fill="#FFFFFF" d="M68.4,54.2c-1.2,3.4-2.2,6.5-3.6,9.5c-0.5,1.1-2,2.2-3.1,2.3c-4.5,0.3-9.1,0.1-13.9,0.1
			c1.3-3.5,2.4-7,3.8-10.2c0.3-0.7,1.5-1.5,2.4-1.6C58.6,54.1,63.3,54.2,68.4,54.2z"/>
	</g>
</g>
</svg>
