<?xml version="1.0" encoding="utf-8"?>
<!-- Generator: Adobe Illustrator 18.0.0, SVG Export Plug-In . SVG Version: 6.00 Build 0)  -->
<!DOCTYPE svg PUBLIC "-//W3C//DTD SVG 1.1//EN" "http://www.w3.org/Graphics/SVG/1.1/DTD/svg11.dtd">
<svg version="1.1" id="레이어_1" xmlns="http://www.w3.org/2000/svg" xmlns:xlink="http://www.w3.org/1999/xlink" x="0px"
	 y="0px" viewBox="0 0 102 102" enable-background="new 0 0 102 102" xml:space="preserve">
<g>
	<g>
		<path fill="#FFFFFF" d="M41.1,0.4c20.7,0,41.5,0,62.2,0c0,34.1,0,68.3,0,102.4c-34.1,0-68.3,0-102.4,0c0-20.1,0-40.2,0-60.3
			c0.1,0.5,0.3,1,0.3,1.4c0.5,4.3,0.5,4.3,5,4.5c0.6,0,1.5,0.6,1.7,1.2c1,2.3,1.8,4.7,2.7,7.1c-0.9,1.1-2,2.2-2.9,3.5
			c-0.3,0.4-0.5,1.4-0.2,1.7c2.7,3.9,5.7,7.6,9.7,10.2c0.8,0.6,1.6,0.7,2.1-0.2c1.9-3,4-2.6,7-1.3c3,1.3,4.7,2.5,3.9,5.8
			c-0.3,1.4,0.5,2,1.8,2.1c3.3,0.2,6.7,0.5,10,0.3c4.5-0.3,4.5-0.5,4.6-5c0-0.6,0.2-1.6,0.4-1.7c2-0.4,1.6-2.1,2-3.4
			c0.3-0.9,1.2-2.3,1.7-2.2c2.5,0.3,3.2-1.1,4-3c0.5-1.2,0.5-2.1-0.6-2.9c-1.5-1.2-1.5-2.6-0.3-3.9c2-2.2,4-4.4,6.1-6.4
			c1.7-1.6,2.7-1.4,4,0.5c0.3,0.4,1.1,1.1,1.3,1c1.6-0.9,3.9-1.4,4.1-3.7c0.2-2.3,1.5-2.8,3.4-2.9c0.5,0,1.1,0,1.5-0.2
			c0.5-0.3,1.3-0.9,1.3-1.3c0-3.6-0.2-7.3-0.3-10.9c0-1.1-0.6-1.7-1.8-1.6c-1.4,0-3.1,0.3-4-0.4c-0.9-0.7-0.7-2.7-1.5-3.7
			c-2.2-3-1.3-5.4,1.2-7.6c0.4-0.3,0.5-1.4,0.3-1.7c-2.8-3.9-5.7-7.7-9.9-10.3c-0.4-0.3-1.5-0.2-1.9,0.2c-1.1,1-1.9,2.1-2.8,3.2
			c-1.6-0.8-2.8-1.6-4-1.8c-3.5-0.7-5-2.5-4.2-6.1c0.2-1.1-0.4-1.6-1.5-1.7C43.8,0.9,42.4,0.6,41.1,0.4z M61.9,97
			c2.6-2.6,2.5-2.4,5.9-1.3c2,0.7,3,1.6,2.5,3.7c-0.2,1.2,0.3,1.8,1.5,1.8c2.8,0,5.7,0.1,8.5,0.1c1.1,0,1.7-0.6,1.5-1.7
			c-0.5-2.3,0.5-3.5,2.8-3.9c0.4-0.1,0.9-0.2,1.2-0.5c1.5-1.1,2.6-0.5,3.4,0.8c0.7,1.2,1.5,1,2.3,0.3c1.8-1.6,3.7-3.1,5.2-4.9
			c2.1-2.3,2-2.4-0.2-4.7c-0.3-0.3-0.5-0.5-0.7-0.8c0.5-1.3,1.2-2.5,1.5-3.8c0.4-1.7,1.2-2.7,3.1-2.3c1.4,0.3,2-0.3,2-1.7
			c0-2.5,0.2-4.9,0.1-7.4c0-2.7-0.1-2.7-2.7-2.8c-0.5,0-1.1-0.1-1.5-0.2c-0.5-1.5-0.8-2.9-1.6-4c-0.9-1.5-0.6-2.5,0.7-3.4
			c1.3-1,1.3-2,0.2-3.2c-2.2-2.4-4.5-4.7-7.2-7.6c-1.2,4-3.1,3.7-5.8,2.4c-1.8-0.9-2.9-1.6-2.5-3.7c0.2-1.3-0.4-1.9-1.6-1.9
			c-2.6-0.1-5.3-0.1-7.9-0.1c-1.4,0-2.1,0.7-1.8,2.1c0.3,1.9-0.7,2.9-2.4,3.4c-0.5,0.1-1.1,0.3-1.6,0.6c-1.8,1.3-2.7,0.2-3.7-1.1
			c-0.2-0.3-0.4-0.7-0.9-1.5c-2.7,2.8-5.2,5.4-7.6,8.1c-0.3,0.3,0,1.5,0.3,1.7c2.3,1.5,1.8,3.2,0.6,5c-0.2,0.3-0.4,0.7-0.4,1.1
			c-0.1,1.8-1.2,2.3-2.8,2c-1.5-0.3-2.1,0.5-2.2,1.8c0,2.8-0.1,5.7,0,8.5c0,0.5,0.9,1.5,1.3,1.4c2.9-0.5,3.7,1.2,4.2,3.5
			c0.2,0.9,0.7,1.7,1.1,2.7c-0.4,0.5-0.8,1-1.3,1.4c-1.2,0.9-1.4,1.7-0.5,3.1C56.6,93,59.1,95.1,61.9,97z"/>
		<path d="M41.1,0.4c1.4,0.2,2.7,0.6,4.1,0.7c1.1,0.1,1.7,0.7,1.5,1.7c-0.8,3.6,0.8,5.4,4.2,6.1c1.3,0.2,2.4,1.1,4,1.8
			c0.9-1,1.7-2.2,2.8-3.2c0.4-0.4,1.4-0.5,1.9-0.2c4.1,2.6,7.1,6.4,9.9,10.3c0.2,0.3,0.1,1.4-0.3,1.7c-2.5,2.3-3.4,4.6-1.2,7.6
			c0.8,1.1,0.6,3,1.5,3.7c0.9,0.7,2.6,0.4,4,0.4c1.2,0,1.8,0.5,1.8,1.6c0.1,3.6,0.3,7.3,0.3,10.9c0,0.5-0.8,1-1.3,1.3
			c-0.4,0.2-1,0.2-1.5,0.2c-1.9,0-3.2,0.6-3.4,2.9c-0.2,2.3-2.4,2.8-4.1,3.7c-0.2,0.1-1-0.5-1.3-1c-1.3-1.9-2.3-2.1-4-0.5
			c-2.1,2-4.1,4.2-6.1,6.4c-1.2,1.3-1.3,2.7,0.3,3.9c1.1,0.8,1.1,1.7,0.6,2.9c-0.7,1.9-1.5,3.3-4,3c-0.5-0.1-1.4,1.3-1.7,2.2
			c-0.4,1.3-0.1,2.9-2,3.4c-0.3,0.1-0.4,1.1-0.4,1.7c-0.1,4.5-0.1,4.8-4.6,5c-3.3,0.2-6.7-0.2-10-0.3c-1.3-0.1-2.1-0.7-1.8-2.1
			c0.7-3.4-0.9-4.6-3.9-5.8c-3-1.3-5.1-1.7-7,1.3c-0.5,0.9-1.3,0.8-2.1,0.2c-4-2.7-6.9-6.4-9.7-10.2c-0.3-0.4-0.1-1.3,0.2-1.7
			c0.9-1.3,2-2.4,2.9-3.5c-0.9-2.5-1.7-4.8-2.7-7.1c-0.2-0.6-1.1-1.1-1.7-1.2c-4.4-0.2-4.4-0.2-5-4.5c-0.1-0.5-0.2-1-0.3-1.4
			c0-1.8,0-3.5,0-5.3c0.2-1.4,0.5-2.8,0.7-4.3c0.1-1.2,0.7-1.6,1.8-1.6c1.4,0,3.1,0.3,4-0.4c0.9-0.7,0.7-2.7,1.5-3.7
			c2.1-3,1.4-5.4-1.1-7.6c-0.4-0.3-0.5-1.5-0.2-1.9c2.7-3.8,5.6-7.4,9.5-10.1c1-0.7,1.7-0.6,2.4,0.3c0.9,1.1,1.8,2.1,2.6,3
			C23.7,10,24.8,9.2,26,9c3.4-0.7,5.1-2.4,4.3-6.1c-0.3-1.2,0.5-1.7,1.6-1.8c1.3-0.2,2.6-0.5,3.9-0.7C37.5,0.4,39.3,0.4,41.1,0.4z
			 M55.9,39.8c0-9.8-7.3-18.3-17.5-18.3c-9.7,0-17.5,8.1-17.4,18.2c0,10,7.2,18.3,17.4,18.3C48.5,58.1,55.8,49.8,55.9,39.8z"/>
		<path fill="#FFFFFF" d="M35.7,0.4c-1.3,0.2-2.6,0.6-3.9,0.7c-1.2,0.1-1.9,0.7-1.6,1.8C31.1,6.5,29.3,8.3,26,9
			c-1.2,0.3-2.3,1-3.9,1.8c-0.8-0.9-1.7-1.9-2.6-3c-0.7-0.9-1.4-1-2.4-0.3c-3.9,2.7-6.8,6.3-9.5,10.1c-0.3,0.4-0.1,1.5,0.2,1.9
			c2.5,2.3,3.3,4.6,1.1,7.6c-0.8,1.1-0.6,3-1.5,3.7c-0.9,0.7-2.6,0.4-4,0.4c-1.2,0-1.7,0.5-1.8,1.6c-0.2,1.4-0.5,2.8-0.7,4.3
			c0-12.2,0-24.5,0-36.8C12.5,0.4,24.1,0.4,35.7,0.4z"/>
		<path d="M61.9,97c-2.8-1.9-5.2-4-7.1-6.8c-0.9-1.4-0.8-2.2,0.5-3.1c0.5-0.4,0.9-0.9,1.3-1.4c-0.4-0.9-1-1.8-1.1-2.7
			c-0.5-2.3-1.3-4-4.2-3.5c-0.3,0.1-1.2-0.9-1.3-1.4c-0.1-2.8-0.1-5.7,0-8.5c0-1.4,0.7-2.1,2.2-1.8c1.6,0.3,2.7-0.2,2.8-2
			c0-0.4,0.2-0.7,0.4-1.1c1.3-1.9,1.7-3.5-0.6-5c-0.4-0.2-0.6-1.4-0.3-1.7c2.4-2.7,4.9-5.3,7.6-8.1c0.5,0.8,0.7,1.2,0.9,1.5
			c0.9,1.3,1.9,2.4,3.7,1.1c0.4-0.3,1-0.5,1.6-0.6c1.7-0.5,2.8-1.4,2.4-3.4c-0.3-1.5,0.5-2.1,1.8-2.1c2.6,0,5.3,0,7.9,0.1
			c1.2,0,1.9,0.6,1.6,1.9c-0.4,2.1,0.7,2.8,2.5,3.7c2.7,1.3,4.7,1.6,5.8-2.4c2.7,2.8,4.9,5.2,7.2,7.6c1.1,1.1,1.2,2.2-0.2,3.2
			c-1.3,0.9-1.7,1.9-0.7,3.4c0.7,1.2,1,2.6,1.6,4c0.4,0,1,0.1,1.5,0.2c2.6,0.1,2.7,0.1,2.7,2.8c0,2.5-0.1,4.9-0.1,7.4
			c0,1.4-0.6,2-2,1.7c-1.9-0.4-2.7,0.6-3.1,2.3c-0.3,1.3-0.9,2.4-1.5,3.8c0.2,0.2,0.5,0.5,0.7,0.8c2.2,2.2,2.3,2.3,0.2,4.7
			c-1.6,1.8-3.5,3.3-5.2,4.9c-0.8,0.8-1.6,0.9-2.3-0.3c-0.8-1.3-1.9-2-3.4-0.8c-0.3,0.3-0.8,0.4-1.2,0.5c-2.2,0.4-3.3,1.5-2.8,3.9
			c0.2,1.1-0.4,1.7-1.5,1.7c-2.8,0-5.7,0-8.5-0.1c-1.2,0-1.7-0.7-1.5-1.8c0.4-2.1-0.5-3-2.5-3.7C64.4,94.6,64.5,94.4,61.9,97z
			 M88.6,73.9c0-7.4-5.5-13-12.7-12.9c-6.8,0.1-12.3,5.9-12.3,12.9c0,6.6,5.3,13.1,12.5,13C83.1,86.8,88.7,81,88.6,73.9z"/>
		<path fill="#FFFFFF" d="M55.9,39.8c-0.1,10-7.4,18.3-17.5,18.2C28.2,58,21,49.8,21,39.7c0-10.1,7.7-18.1,17.4-18.2
			C48.6,21.6,55.9,30,55.9,39.8z"/>
		<path fill="#FFFFFF" d="M88.6,73.9c0,7.1-5.6,12.9-12.5,13c-7.2,0.1-12.5-6.4-12.5-13c0-7.1,5.4-12.9,12.3-12.9
			C83.1,60.9,88.6,66.5,88.6,73.9z"/>
	</g>
</g>
</svg>
