<?xml version="1.0" encoding="utf-8"?>
<!-- Generator: Adobe Illustrator 18.0.0, SVG Export Plug-In . SVG Version: 6.00 Build 0)  -->
<!DOCTYPE svg PUBLIC "-//W3C//DTD SVG 1.1//EN" "http://www.w3.org/Graphics/SVG/1.1/DTD/svg11.dtd">
<svg version="1.1" id="레이어_1" xmlns="http://www.w3.org/2000/svg" xmlns:xlink="http://www.w3.org/1999/xlink" x="0px"
	 y="0px" viewBox="0 0 102 102" enable-background="new 0 0 102 102" xml:space="preserve">
<g>
	<g>
		<path fill="#FFFFFF" d="M13.8,0.4c29.8,0,59.6,0,89.4,0c0,34.1,0,68.2,0,102.4c-34.1,0-68.2,0-102.4,0c0-34.1,0-68.2,0-102.4
			c4,0,7.9,0,11.9,0C9.6,2.5,6.5,4.7,3.4,6.9c-1.1,0.7-2,1.4-2,3c0.1,15.8,0,31.6,0,47.5c0,4.6,0,9.1,0,13.7c0,0.7,0.2,1.5,0.7,1.9
			c1.6,1.3,3.3,2.3,5,3.5c2,1.4,4,2.8,6,4.2c0.3-0.3,0.7-0.6,1.1-0.9c3.2-2.2,6.4-4.3,9.6-6.6c0.5-0.3,0.9-1.2,0.9-1.8
			c0.1-11.6,0.1-23.1,0.1-34.7c0-9,0-18-0.2-27.1c0-0.9-0.7-2-1.4-2.5c-2.2-1.6-4.5-3-6.7-4.5C15.6,2,14.7,1.1,13.8,0.4z
			 M102.3,56.9C102.3,56.9,102.3,56.9,102.3,56.9c0-12,0-24.1-0.1-36.1c0-0.8-0.6-1.8-1.3-2.3c-2.5-1.9-5.2-3.7-7.8-5.5
			c-1.4-1-2.6-1.8-4.4-0.4c-2.8,2.2-6,4.1-8.9,6.2C79.3,19.2,79,20.2,79,21c0,23.6,0,47.2-0.1,70.8c0,2,0.8,3.1,2.3,4.1
			c2.7,1.7,5.3,3.6,7.8,5.4c1.1,0.8,1.9,1,3.1,0.1c2.8-2,5.6-3.9,8.4-5.9c0.9-0.7,1.7-1.4,1.7-2.8C102.3,80.8,102.3,68.8,102.3,56.9
			z M64.7,19c-2.6,1.7-5.1,3.5-7.8,5.2c-2.7,1.7-4.1,3.4-4.1,7.1C53.1,49.4,53,67.5,53,85.6c0,1,0,1.8,1.1,2.5
			c3.4,2.3,6.7,4.7,10.1,7.1c0.3,0.2,1,0.2,1.3,0c3.3-2.3,6.6-4.6,9.9-7c0.6-0.4,1-1.4,1-2.1c0.1-14.5,0-29,0-43.6
			c0-4.8,0-9.5,0-14.3c0-0.5-0.2-1.3-0.6-1.6c-1.2-1-2.5-1.8-3.7-2.7C69.6,22.3,67.1,20.7,64.7,19z M50.8,57c0,0-0.1,0-0.1,0
			c0-6.5-0.1-13.1,0.1-19.6c0.1-2.2-0.9-3.4-2.6-4.5c-2.5-1.6-4.8-3.3-7.2-5.1c-1.2-0.9-2.3-1.1-3.6-0.1c-2.5,1.9-5.3,3.6-7.8,5.5
			c-0.9,0.7-2.3,1.2-2.3,3c0.1,13.3,0.1,26.7-0.1,40c0,2.5,1,3.8,2.8,5c2.8,1.8,5.4,3.8,8.2,5.6c0.4,0.3,1.3,0.3,1.7,0.1
			c2.9-1.9,5.8-3.9,8.7-5.9c1.6-1.1,2.3-2.3,2.3-4.4C50.7,70.1,50.8,63.6,50.8,57z"/>
		<path d="M13.8,0.4c0.9,0.8,1.8,1.6,2.7,2.3c2.2,1.5,4.6,2.9,6.7,4.5c0.7,0.5,1.4,1.6,1.4,2.5c0.1,9,0.2,18,0.2,27.1
			c0,11.6-0.1,23.1-0.1,34.7c0,0.6-0.4,1.4-0.9,1.8c-3.1,2.2-6.4,4.4-9.6,6.6c-0.4,0.3-0.7,0.6-1.1,0.9c-2-1.4-4-2.8-6-4.2
			c-1.7-1.2-3.4-2.2-5-3.5c-0.5-0.4-0.7-1.3-0.7-1.9c-0.1-4.6,0-9.1,0-13.7c0-15.8,0-31.6,0-47.5c0-1.6,1-2.2,2-3
			c3.1-2.2,6.2-4.4,9.3-6.5C13.1,0.4,13.5,0.4,13.8,0.4z"/>
		<path d="M102.3,56.9c0,12,0,24,0,36c0,1.4-0.8,2.1-1.7,2.8c-2.8,2-5.7,3.8-8.4,5.9c-1.2,0.9-2,0.7-3.1-0.1
			c-2.6-1.9-5.2-3.7-7.8-5.4c-1.6-1-2.4-2.1-2.3-4.1C79,68.2,78.9,44.6,79,21c0-0.8,0.3-1.8,0.9-2.2c2.9-2.2,6-4,8.9-6.2
			c1.8-1.4,3-0.6,4.4,0.4c2.6,1.8,5.3,3.6,7.8,5.5c0.7,0.5,1.3,1.5,1.3,2.3C102.3,32.8,102.3,44.8,102.3,56.9
			C102.3,56.9,102.3,56.9,102.3,56.9z"/>
		<path d="M64.7,19c2.4,1.6,4.9,3.3,7.3,4.9c1.3,0.9,2.6,1.7,3.7,2.7c0.4,0.3,0.6,1,0.6,1.6c0,4.8,0,9.5,0,14.3c0,14.5,0,29,0,43.6
			c0,0.7-0.5,1.6-1,2.1c-3.2,2.4-6.5,4.7-9.9,7c-0.3,0.2-1,0.2-1.3,0c-3.4-2.3-6.7-4.8-10.1-7.1c-1-0.7-1.1-1.5-1.1-2.5
			c0-18.1,0.2-36.2-0.1-54.3c-0.1-3.6,1.4-5.4,4.1-7.1C59.6,22.6,62.1,20.8,64.7,19z"/>
		<path d="M50.8,57c0,6.6-0.1,13.1,0.1,19.7c0.1,2.1-0.7,3.3-2.3,4.4c-2.9,2-5.7,4-8.7,5.9c-0.4,0.3-1.3,0.2-1.7-0.1
			c-2.8-1.8-5.4-3.8-8.2-5.6c-1.8-1.2-2.9-2.5-2.8-5c0.2-13.3,0.2-26.7,0.1-40c0-1.8,1.3-2.3,2.3-3c2.5-2,5.2-3.6,7.8-5.5
			c1.3-1,2.4-0.8,3.6,0.1c2.4,1.8,4.7,3.5,7.2,5.1c1.7,1.1,2.6,2.3,2.6,4.5c-0.2,6.5-0.1,13.1-0.1,19.6C50.8,57,50.8,57,50.8,57z"/>
	</g>
</g>
</svg>
