<?xml version="1.0" encoding="utf-8"?>
<!-- Generator: Adobe Illustrator 18.0.0, SVG Export Plug-In . SVG Version: 6.00 Build 0)  -->
<!DOCTYPE svg PUBLIC "-//W3C//DTD SVG 1.1//EN" "http://www.w3.org/Graphics/SVG/1.1/DTD/svg11.dtd">
<svg version="1.1" id="레이어_1" xmlns="http://www.w3.org/2000/svg" xmlns:xlink="http://www.w3.org/1999/xlink" x="0px"
	 y="0px" viewBox="0 0 102 102" enable-background="new 0 0 102 102" xml:space="preserve">
<g>
	<g>
		<path fill="#FFFFFF" d="M0.4,60.9c0-14.5,0-29,0-43.6c12.7,0,25.4,0,38.2,0c-0.3,0.1-0.5,0.3-0.8,0.3c-4.7,0.4-7.5,3-9,7.3
			c-1,3-2.1,5.9-3.1,8.8c-0.7,2-1.4,4-2.1,6.1C23.8,40,24,40,24.2,40c2.8,0.3,2.8,0.3,3.2,3c0,0.4,0.4,0.9,0.7,1
			c0.8,0.4,1.7,0.6,2.7,0.9c2.3-6.6,4.5-12.9,6.8-19.3c1.1-3.2,2-3.9,5.2-3.9c13,0,26,0,39,0c3,0,3.5,0.9,2.5,3.7
			c-4.4,12.4-8.8,24.9-13.2,37.3c-1.5,4.2-2.2,4.6-6.7,4.6c-3.1,0-6.2,0-9.7,0c0.6,1.1,1,2.4,1.5,2.5c1.6,0.2,1.8,1.3,1.9,2.5
			c4.1,0,8,0.1,12,0c4.7-0.2,7.8-2.6,9.3-7.2c0.3-0.8,0.6-1.6,0.8-2.4c4.2-11.9,8.5-23.7,12.6-35.6c1.4-3.9,3.9-6.7,7.4-8.7
			c0.5-0.3,0.9-0.7,1.3-1.1c0.1,0.5,0.3,1,0.3,1.4c0,22.2,0,44.4,0,66.6c-33.8,0-67.7,0-101.5,0c0-6.8,0-13.7,0-20.5
			c0.2,0.6,0.4,1.2,0.7,2c2.7-0.8,3.4,0.9,4.3,3.1c0.9,2.2,1.8,4-1.6,5.8c2,2.1,3.7,4,5.5,5.8c0.3-0.1,0.5-0.3,0.8-0.4
			c1.5-2.9,3.2-1.9,5.4-1.1c2.4,0.9,3.8,1.9,3.2,4.7c2.4,0,4.5,0.1,6.5,0c0.4,0,1.2-0.7,1.1-1c-0.4-2.3,0.9-3,2.8-3.5
			c0.5-0.1,1-0.3,1.5-0.6c1.4-1,2.6-1.1,3.6,0.5c0.4-0.7,0.8-1.3,1.5-2.4c-0.9-0.6-1.8-1.2-2.5-1.9c-0.4-0.3-0.7-0.9-0.7-1.3
			c-0.1-0.9-0.2-2,0-2.9c0.1-0.6,0.7-1.3,1.3-1.6c1.3-0.6,1.8-1.8,1.2-3.2c-0.2-0.5-0.1-1.3,0.2-1.7c0.6-0.9,1.4-1.7,2.3-2.3
			c0.5-0.3,1.4-0.3,1.9-0.1c1.3,0.8,2.1-0.1,2.8-0.7c0.8-0.7,1.3-1.7,2.1-2.8c-2.1,0-3.7-0.7-4.5-3.3c-0.7-2.3-1.7-4.1,1.2-5.8
			c-1.9-2-3.7-3.8-5.8-6c-1.5,3.8-3.6,2.5-5.6,1.4c-0.4-0.2-0.9-0.4-1.4-0.5c-1.4-0.2-2-1-1.7-2.4c0.2-1.4-0.4-1.9-1.7-1.8
			c-1.6,0-3.2,0-4.8,0.1c-0.5,0.1-1.2,0.9-1.2,1.3c0.2,1.8-0.5,2.7-2.3,2.9c-0.5,0.1-1,0.2-1.3,0.5c-1.9,1.4-3.5,1.2-4.9-0.7
			C10.1,45,10,45,9.3,44.9c-1.6,1.6-3.4,3.3-5.1,5c2.3,2.9,2.3,2.9,1,6c0,0.1-0.1,0.2-0.1,0.3c-0.2,2.4-1.7,3.2-3.9,2.9
			c-0.1,0-0.2,0.1-0.3,0.1C0.7,59.8,0.6,60.4,0.4,60.9z M35.3,65.9c1.5,1.9,0.8,4.3-1.2,5.1c-0.4,0.2-0.9,1.1-0.8,1.6
			c0,0.8,0.2,2,0.7,2.3c2.2,1.1,2.9,3,1.6,5c0.8,1,1.7,2,2.5,2.9c2-1.6,4.3-0.8,5.1,1.3c0.2,0.4,1.1,0.8,1.7,0.8
			c0.8,0,2-0.2,2.3-0.7c1.1-2.1,3.1-2.9,5.3-1.3c0.9-0.9,1.8-1.8,2.6-2.7c-1.5-2.1-0.8-4.2,1.3-5.2c0.5-0.2,0.7-1.3,0.8-2.1
			c0-0.6-0.3-1.7-0.8-1.9c-2.1-0.9-2.8-3.1-1.3-5.2c-0.9-0.9-1.8-1.8-2.6-2.7c-2.1,1.6-4.2,0.8-5.2-1.3c-0.2-0.4-1.1-0.7-1.7-0.7
			c-0.7,0-2.1,0.4-2.1,0.6c0,1.5-1.1,1.8-2.1,2c-0.9,0.2-1.9,0.1-2.9,0.2c-0.1-0.2-0.2-0.5-0.3-0.7C37.1,64,36.3,64.9,35.3,65.9z"/>
		<path d="M101.5,17.4c-0.4,0.4-0.8,0.8-1.3,1.1c-3.5,2-6,4.8-7.4,8.7c-4.1,11.9-8.4,23.7-12.6,35.6c-0.3,0.8-0.6,1.6-0.8,2.4
			c-1.5,4.5-4.6,7-9.3,7.2c-3.9,0.2-7.9,0-12,0c-0.1-1.2-0.3-2.3-1.9-2.5c-0.5-0.1-0.9-1.4-1.5-2.5c3.5,0,6.6,0,9.7,0
			c4.6,0,5.2-0.4,6.7-4.6c4.4-12.4,8.8-24.9,13.2-37.3c1-2.8,0.4-3.7-2.5-3.7c-13,0-26,0-39,0c-3.2,0-4.1,0.7-5.2,3.9
			c-2.2,6.4-4.5,12.8-6.8,19.3c-1-0.3-1.9-0.5-2.7-0.9c-0.3-0.2-0.6-0.7-0.7-1c-0.4-2.7-0.3-2.7-3.2-3c-0.2,0-0.4-0.1-0.7-0.1
			c0.7-2,1.4-4.1,2.1-6.1c1-2.9,2.1-5.9,3.1-8.8c1.5-4.3,4.3-7,9-7.3c0.3,0,0.6-0.2,0.8-0.3C59.5,17.4,80.5,17.4,101.5,17.4z"/>
		<path d="M0.4,60.9c0.2-0.6,0.4-1.1,0.6-1.7c0.1,0,0.2-0.2,0.3-0.1c2.3,0.3,3.7-0.5,3.9-2.9c0-0.1,0.1-0.2,0.1-0.3c1.2-3,1.2-3-1-6
			c1.7-1.7,3.5-3.5,5.1-5c0.6,0.2,0.8,0.2,0.8,0.3c1.4,2,3,2.2,4.9,0.7c0.4-0.3,0.9-0.4,1.3-0.5c1.7-0.2,2.4-1.2,2.3-2.9
			c0-0.4,0.7-1.2,1.2-1.3c1.6-0.2,3.2-0.1,4.8-0.1c1.3,0,1.9,0.5,1.7,1.8c-0.2,1.4,0.3,2.2,1.7,2.4c0.5,0.1,0.9,0.3,1.4,0.5
			c2,1.1,4.1,2.3,5.6-1.4c2.1,2.2,3.8,4,5.8,6c-2.9,1.6-1.9,3.4-1.2,5.8c0.8,2.7,2.4,3.3,4.5,3.3c-0.8,1.1-1.3,2.2-2.1,2.8
			c-0.7,0.6-1.6,1.5-2.8,0.7c-0.4-0.3-1.4-0.2-1.9,0.1c-0.9,0.6-1.7,1.4-2.3,2.3c-0.3,0.4-0.4,1.3-0.2,1.7c0.6,1.4,0.1,2.6-1.2,3.2
			c-0.6,0.3-1.1,1-1.3,1.6c-0.2,0.9-0.1,1.9,0,2.9c0.1,0.5,0.4,1,0.7,1.3c0.8,0.7,1.7,1.3,2.5,1.9c-0.7,1.1-1,1.7-1.5,2.4
			c-1-1.6-2.2-1.5-3.6-0.5c-0.4,0.3-1,0.5-1.5,0.6c-1.9,0.4-3.3,1.1-2.8,3.5c0,0.3-0.7,0.9-1.1,1c-2.1,0.1-4.2,0-6.5,0
			c0.6-2.8-0.8-3.9-3.2-4.7c-2.2-0.8-3.9-1.7-5.4,1.1c-0.3,0.1-0.5,0.3-0.8,0.4c-1.7-1.8-3.4-3.7-5.5-5.8c3.4-1.7,2.4-3.6,1.6-5.8
			c-0.9-2.2-1.6-3.8-4.3-3.1c-0.3-0.8-0.5-1.4-0.7-2C0.4,63.6,0.4,62.2,0.4,60.9z M12.4,63c0,5.4,4.8,10.2,10.1,10.1
			c5.4-0.1,10.2-5,10-10.2c-0.1-5.4-4.8-9.9-10.1-10C17.1,52.8,12.4,57.6,12.4,63z"/>
		<path d="M35.3,65.9c0.9-1,1.8-1.8,2.6-2.7c0.1,0.2,0.2,0.5,0.3,0.7c1,0,2,0,2.9-0.2c1-0.2,2.1-0.5,2.1-2c0-0.2,1.4-0.6,2.1-0.6
			c0.6,0,1.5,0.3,1.7,0.7c1,2.1,3.1,2.9,5.2,1.3c0.9,0.9,1.8,1.8,2.6,2.7c-1.5,2.1-0.8,4.2,1.3,5.2c0.5,0.2,0.8,1.2,0.8,1.9
			c0,0.7-0.3,1.8-0.8,2.1c-2.1,1-2.8,3.1-1.3,5.2c-0.9,0.9-1.8,1.8-2.6,2.7c-2.2-1.6-4.2-0.8-5.3,1.3c-0.3,0.5-1.5,0.7-2.3,0.7
			c-0.6,0-1.5-0.3-1.7-0.8c-0.8-2-3.1-2.8-5.1-1.3c-0.8-0.9-1.6-1.9-2.5-2.9c1.2-2,0.5-3.9-1.6-5c-0.5-0.3-0.7-1.5-0.7-2.3
			c0-0.6,0.4-1.4,0.8-1.6C36.1,70.2,36.9,67.8,35.3,65.9z M45.2,78.5c2.9,0,5.5-2.7,5.5-5.6c0-2.9-2.7-5.5-5.6-5.5
			c-2.9,0-5.5,2.7-5.5,5.6C39.7,75.9,42.4,78.6,45.2,78.5z"/>
		<path fill="#FFFFFF" d="M12.4,63c0-5.4,4.7-10.1,10.1-10.1c5.3,0,10,4.6,10.1,10c0.1,5.3-4.7,10.1-10,10.2
			C17.3,73.1,12.5,68.4,12.4,63z M30.2,67.4c-0.7,0-1.2-0.1-1.8-0.1c-2.7-0.1-5-3.1-3.6-5.8c0.5-1,0.9-2.1,1.2-3.2
			c1.3-3.5,0.8-4.2-3-4.5c-0.6-0.1-1.2,0-1.8,0.1c-2.1,0.3-3.6,1.2-4.1,3.5c-0.4,1.7-1.3,3.2-1.7,4.9c-0.5,2.3-1,5,0.7,6.9
			C20.1,73.6,27.7,72.5,30.2,67.4z"/>
		<path fill="#FFFFFF" d="M45.2,78.5c-2.9,0-5.6-2.6-5.6-5.5c0-2.9,2.6-5.6,5.5-5.6c2.9,0,5.6,2.6,5.6,5.5
			C50.8,75.8,48.1,78.5,45.2,78.5z M40.9,72.3c2.9,0,5.8,0,8.7,0c-0.6-2.5-2.3-3.8-4.4-3.8C43,68.5,41.4,69.9,40.9,72.3z"/>
		<path d="M30.2,67.4c-2.4,5.1-10.1,6.2-14,1.8c-1.7-1.9-1.2-4.6-0.7-6.9c0.3-1.7,1.3-3.2,1.7-4.9c0.5-2.3,2.1-3.2,4.1-3.5
			c0.6-0.1,1.2-0.2,1.8-0.1c3.8,0.3,4.3,1,3,4.5c-0.4,1.1-0.7,2.2-1.2,3.2c-1.5,2.7,0.9,5.7,3.6,5.8C28.9,67.3,29.5,67.4,30.2,67.4z
			"/>
		<path d="M40.9,72.3c0.5-2.4,2.1-3.8,4.3-3.8c2.2,0,3.8,1.3,4.4,3.8C46.6,72.3,43.8,72.3,40.9,72.3z"/>
	</g>
</g>
</svg>
