<?xml version="1.0" encoding="utf-8"?>
<!-- Generator: Adobe Illustrator 18.0.0, SVG Export Plug-In . SVG Version: 6.00 Build 0)  -->
<!DOCTYPE svg PUBLIC "-//W3C//DTD SVG 1.1//EN" "http://www.w3.org/Graphics/SVG/1.1/DTD/svg11.dtd">
<svg version="1.1" id="레이어_1" xmlns="http://www.w3.org/2000/svg" xmlns:xlink="http://www.w3.org/1999/xlink" x="0px"
	 y="0px" viewBox="0 0 102 102" enable-background="new 0 0 102 102" xml:space="preserve">
<g>
	<g>
		<path fill="#FFFFFF" d="M51.4,103.3c-16.5,0-33.1,0-49.6,0c-1.1,0-1.4-0.1-1.4-1.3c0-33.2,0-66.4,0-99.7c0-1.3,0.4-1.4,1.5-1.4
			c33.2,0,66.3,0,99.5,0c1.1,0,1.5,0.2,1.5,1.4c0,33.2,0,66.4,0,99.7c0,1.2-0.3,1.3-1.4,1.3C84.7,103.2,68,103.3,51.4,103.3z
			 M60.8,87.4c0.2,0,0.4,0,0.6,0c1.2,1.6,2.4,3.2,3.6,4.8c2.8,3.6,5.7,7,9.6,9.4c1.1,0.7,2.2,0.7,3.2-0.5c1.4-1.6,1.2-3.3,1-5.1
			c-0.7-6.3-2.7-12.3-4.9-18.2c-2-5.4-4.2-10.8-6.7-16c-0.6-1.2-0.5-1.8,1.1-1.9c6.5-0.4,12.9-1.7,19.2-3c3.9-0.8,7.5-2.2,11.1-3.9
			c1.5-0.7,2.8-1.9,3.2-3.6c0.4-1.7-0.9-3.7-3.1-4.5c-3.3-1.3-6.6-2.6-10.2-3.2c-6.2-1.1-12.5-1.4-18.8-2.2c-1-0.1-1.6-0.2-1-1.5
			c1.3-3,2.6-6,3.7-9c2.5-6.3,4.7-12.7,5.8-19.4c0.3-1.6,0.4-3.2,0.2-4.8c-0.4-2.3-2.3-3.6-3.9-2.6c-1.5,0.8-3,1.8-4.1,3
			c-3,3.1-5.9,6.4-8.4,10.1c-0.4,0.7-1,1-1.3-0.1c-0.3-1.4-1.2-2.4-2-3.4c-2.2-2.7-6.4-4.8-9.8-3.4c-3.1,1.2-5.6,3.2-6.8,6.5
			c-0.1,0.4-0.1,1-0.7,1c-0.5,0-0.6-0.6-0.9-0.9c-3.4-4.3-6.5-8.9-11.3-12c-2.6-1.7-4.7-0.9-5,2.3C24,7,24.3,8.9,24.7,10.8
			c1.9,9.6,5.6,18.5,9.5,27.4c0.9,2,0.9,2.1-1.3,2.3c-8.2,0.6-16.2,2.2-24,4.6c-2.2,0.7-4.2,1.8-6.1,3c-1.9,1.2-2.5,3.7-1.4,5.1
			c0.8,1,1.9,1.9,3.1,2.5c3.3,1.4,6.7,2.3,10.2,3c6.4,1.3,12.9,1.6,19.4,1.9c1.4,0.1,1.9,0.3,1.2,1.8c-1.5,3.1-2.8,6.3-4.1,9.5
			c-2.8,6.9-5.4,13.9-6.8,21.3C24,95,23.6,97,23.9,99c0.4,2.3,2.2,3.7,3.8,2.7c1.6-0.9,3.2-1.9,4.5-3.2c2.5-2.6,4.8-5.4,7-8.2
			c0.8-1,1.1-2.3,2.7-3c-0.3,3.2,0.1,5.9,2.6,8.1c2.5,2.3,5.4,2.2,8.5,2.1c1.9,0,3.5-0.6,5-1.7C60.8,93.7,61.2,90.7,60.8,87.4z"/>
		<path d="M60.8,87.4c0.4,3.3,0,6.3-2.8,8.4c-1.5,1.1-3.1,1.7-5,1.7c-3,0-6,0.1-8.5-2.1c-2.4-2.2-2.9-4.9-2.6-8.1
			c-1.6,0.7-1.9,2.1-2.7,3c-2.2,2.8-4.6,5.6-7,8.2c-1.3,1.4-2.9,2.3-4.5,3.2c-1.6,1-3.5-0.4-3.8-2.7c-0.3-2,0-4,0.4-5.9
			c1.4-7.4,4-14.3,6.8-21.3c1.3-3.2,2.6-6.3,4.1-9.5c0.7-1.5,0.2-1.7-1.2-1.8c-6.5-0.3-13-0.6-19.4-1.9c-3.5-0.7-6.9-1.7-10.2-3
			c-1.2-0.5-2.3-1.5-3.1-2.5c-1.2-1.4-0.5-4,1.4-5.1c1.9-1.2,4-2.3,6.1-3c7.8-2.4,15.8-4,24-4.6c2.2-0.2,2.2-0.3,1.3-2.3
			c-3.9-8.9-7.6-17.8-9.5-27.4C24.3,8.9,24,7,24.2,5.1c0.3-3.1,2.4-4,5-2.3c4.8,3.1,7.9,7.7,11.3,12c0.3,0.3,0.4,0.9,0.9,0.9
			c0.6,0,0.6-0.6,0.7-1c1.2-3.3,3.7-5.3,6.8-6.5c3.5-1.4,7.6,0.7,9.8,3.4c0.8,1,1.7,2.1,2,3.4c0.3,1,0.9,0.7,1.3,0.1
			c2.4-3.7,5.3-6.9,8.4-10.1c1.2-1.2,2.7-2.2,4.1-3c1.6-0.9,3.5,0.4,3.9,2.6c0.3,1.6,0.1,3.2-0.2,4.8c-1.1,6.7-3.4,13.1-5.8,19.4
			c-1.2,3-2.4,6-3.7,9c-0.6,1.2,0,1.3,1,1.5c6.3,0.9,12.6,1.2,18.8,2.2c3.5,0.6,6.9,1.9,10.2,3.2c2.2,0.9,3.5,2.8,3.1,4.5
			c-0.4,1.7-1.6,2.9-3.2,3.6c-3.6,1.7-7.2,3.1-11.1,3.9c-6.4,1.3-12.7,2.6-19.2,3c-1.6,0.1-1.6,0.7-1.1,1.9c2.5,5.2,4.7,10.6,6.7,16
			c2.2,5.9,4.3,11.9,4.9,18.2c0.2,1.7,0.4,3.5-1,5.1c-1,1.2-2.1,1.2-3.2,0.5c-3.9-2.4-6.8-5.8-9.6-9.4c-1.2-1.6-2.4-3.2-3.6-4.8
			C61.1,87.3,61,87.4,60.8,87.4z M60.3,28.5c0.7,2.6,0.5,4.8,0.5,7.1c0,3.3,0,3.3,3.3,3.4c3,0.1,3,0.1,4.1-2.7
			c1.4-3.6,3-7.2,4.3-10.8c2.2-5.9,4.2-11.9,4.8-18.3c0.1-1.3,0.5-2.9-0.9-3.7c-1.4-0.8-2.6,0.5-3.8,1.1c-0.2,0.1-0.4,0.3-0.6,0.5
			c-2.7,2.6-5.3,5.3-7.5,8.3c-1.1,1.6-3.1,2.8-3,5.1c0.2,3.3-0.8,6.1-2.5,8.8c-2.3,3.4-8.2,5.1-11.4,3.2c-4.5-2.6-6.7-6.5-6.5-11.7
			c0-1.2-0.3-2.1-1-3c-2.1-2.6-4.1-5.4-6.3-7.8c-1.5-1.7-3.1-3.4-5.2-4.4c-2.1-1.1-3.1-0.5-3.2,1.9c-0.1,1.6,0.1,3.2,0.4,4.8
			c1.9,10,5.8,19.3,9.8,28.5c0.4,0.9,1,1.2,1.9,1.1c5.1-0.3,4.3,0.1,4.4-4.4c0-1.8,0-3.6,0-5.4c0-0.6-0.2-1.2,0.6-1.8
			c2.1,3,5.1,4.3,8.8,4.3C55,32.8,57.9,31.6,60.3,28.5z M30.8,59.5C30.8,59.5,30.8,59.5,30.8,59.5c1.3,0,2.7,0,4,0.1
			c1.3,0.1,2-0.3,2.4-1.6c0.7-1.8,1.6-3.5,2.5-5.2c0.5-0.9,0.5-1.7,0-2.7c-1.3-2.5-2.5-5-3.6-7.6c-0.5-1.1-1-1.4-2.1-1.3
			c-3.8,0.4-7.5,0.9-11.3,1.7c-5.3,1.1-10.6,1.9-15.6,4.1c-1.6,0.7-3.1,1.5-4.3,2.7C1.5,51,1.5,52.2,3,53.1c1.4,0.9,2.9,1.8,4.5,2.4
			c4.2,1.5,8.7,2,13,2.9C23.9,59.1,27.4,59.2,30.8,59.5z M70.7,40.7c-1.2,0.3-2.9-0.9-3.7,1.1c-1,2.2-2,4.4-3.1,6.5
			c-1.2,2.2-1.7,4.1,0,6.3c0.7,0.9,1.1,2,1.5,3.1c0.3,1.1,1,1.3,2,1.2c2.9-0.2,5.8-0.8,8.7-1.2c6.3-1,12.6-2,18.6-4.3
			c1.9-0.7,3.6-1.8,5.2-3c1.3-1,1.3-2.2,0-3.2c-1.1-0.8-2.3-1.8-3.5-2.2C93,44,89.6,43,86.2,42.3C81.2,41.3,76,41,70.7,40.7z
			 M60.8,72.8c0,3.4,0,6.8,0,10.2c0,0.9,0.1,1.7,0.7,2.5c2.5,3.8,5.4,7.4,8.5,10.7c1.2,1.3,2.4,2.6,4,3.5c2.7,1.5,3.8,0.9,3.7-2.2
			c0-1.3-0.1-2.7-0.4-4c-2.1-10.9-6.5-21-10.9-31.1c-0.9-2-2-2.3-3.9-2.1c-1.3,0.2-1.8,0.5-1.7,1.9C60.9,65.6,60.8,69.2,60.8,72.8z
			 M41.9,73.1c0-3.5,0-7,0-10.5c0-1.3-0.4-1.8-1.8-1.8c-3-0.1-3.3,0-4.5,2.9c-2,4.9-4.1,9.8-5.9,14.7c-2.2,5.9-4.2,11.8-4.7,18.1
			c-0.1,1.3-0.6,3.1,0.9,3.8c1.5,0.7,2.7-0.6,4-1.4c0.2-0.1,0.3-0.2,0.4-0.4C34.2,95,37.3,91,40.3,87c1.1-1.4,1.7-2.9,1.6-4.7
			C41.8,79.2,41.9,76.1,41.9,73.1z M60.8,44.9c0.1,1.3-0.2,2.8,0.3,4.2c0.1,0.3,0.3,0.8,0.7,0.9c0.4,0.1,0.5-0.3,0.6-0.6
			c1.2-2.5,2.3-5.1,3.5-7.6c0.3-0.7,0.3-1.1-0.6-1.3c-4-0.7-4.5-0.3-4.5,3.7C60.8,44.3,60.8,44.5,60.8,44.9z M40.7,50.1
			c1.1-0.6,1.2-1.5,1.2-2.4c0.1-1.8,0-3.7,0-5.5c0-0.6,0-1.4-0.9-1.3c-1.4,0.2-2.8-0.1-4,0.6c-0.1,0,0,0.5,0.1,0.7
			C38.3,44.8,39.5,47.4,40.7,50.1z M41.9,56.8c-0.1-0.9,0.2-1.9-0.3-2.9c-0.4-0.8-0.8-1-1.3-0.1c-0.8,1.6-1.5,3.2-2.2,4.8
			c-0.3,0.7-0.1,0.9,0.6,1C41.5,60.3,41.9,59.9,41.9,56.8z M62.2,59.3c2.7-0.1,2.8-0.3,1.6-2.6c-0.5-0.9-0.9-1.8-1.3-2.7
			c-0.1-0.3-0.4-0.6-0.6-0.7c-0.4-0.1-0.6,0.4-0.8,0.7c-0.5,1.3-0.2,2.6-0.3,4C60.7,59.1,61.2,59.5,62.2,59.3z"/>
		<path fill="#FFFFFF" d="M60.3,28.5c-2.3,3.1-5.3,4.3-9,4.3c-3.7,0-6.7-1.3-8.8-4.3c-0.8,0.6-0.6,1.3-0.6,1.8c0,1.8,0,3.6,0,5.4
			c-0.1,4.5,0.8,4.1-4.4,4.4c-0.9,0.1-1.5-0.2-1.9-1.1c-4-9.2-7.9-18.5-9.8-28.5c-0.3-1.6-0.5-3.2-0.4-4.8c0.1-2.4,1.1-3,3.2-1.9
			c2.1,1,3.7,2.8,5.2,4.4c2.3,2.5,4.2,5.2,6.3,7.8c0.7,0.9,1,1.8,1,3c-0.2,5.2,2.1,9.1,6.5,11.7c3.2,1.9,9.2,0.2,11.4-3.2
			c1.8-2.7,2.8-5.6,2.5-8.8c-0.2-2.3,1.9-3.5,3-5.1c2.1-3.1,4.7-5.8,7.5-8.3c0.2-0.2,0.4-0.4,0.6-0.5c1.2-0.7,2.4-2,3.8-1.1
			c1.3,0.8,1,2.4,0.9,3.7c-0.5,6.4-2.6,12.3-4.8,18.3c-1.3,3.6-2.9,7.2-4.3,10.8c-1.1,2.8-1.1,2.8-4.1,2.7c-3.3-0.1-3.3-0.1-3.3-3.4
			C60.8,33.4,60.9,31.1,60.3,28.5z"/>
		<path fill="#FFFFFF" d="M30.8,59.5c-3.4-0.3-6.9-0.4-10.3-1.1c-4.4-0.9-8.8-1.4-13-2.9C5.9,54.9,4.4,54,3,53.1
			c-1.5-1-1.5-2.1-0.3-3.3c1.3-1.2,2.7-2,4.3-2.7c5-2.2,10.3-3,15.6-4.1c3.7-0.8,7.5-1.3,11.3-1.7c1.1-0.1,1.7,0.2,2.1,1.3
			c1.1,2.6,2.3,5.1,3.6,7.6c0.5,1,0.5,1.7,0,2.7c-0.9,1.7-1.8,3.4-2.5,5.2c-0.5,1.2-1.2,1.7-2.4,1.6C33.5,59.5,32.1,59.5,30.8,59.5
			C30.8,59.5,30.8,59.5,30.8,59.5z"/>
		<path fill="#FFFFFF" d="M70.7,40.7c5.3,0.3,10.4,0.6,15.5,1.6C89.6,43,93,44,96.3,45.1c1.3,0.4,2.4,1.3,3.5,2.2
			c1.3,1,1.3,2.1,0,3.2c-1.6,1.2-3.3,2.3-5.2,3c-6,2.3-12.3,3.3-18.6,4.3c-2.9,0.5-5.7,1-8.7,1.2c-1,0.1-1.7-0.1-2-1.2
			c-0.3-1.1-0.8-2.2-1.5-3.1c-1.7-2.2-1.2-4.1,0-6.3C65,46.2,66,44,67,41.8C67.9,39.8,69.5,41,70.7,40.7z"/>
		<path fill="#FFFFFF" d="M60.8,72.8c0-3.6,0-7.2,0-10.7c0-1.3,0.4-1.7,1.7-1.9c1.9-0.2,3,0.1,3.9,2.1c4.3,10.1,8.8,20.2,10.9,31.1
			c0.2,1.3,0.4,2.7,0.4,4c0,3.1-1,3.7-3.7,2.2c-1.6-0.9-2.8-2.2-4-3.5c-3.1-3.3-6-6.9-8.5-10.7c-0.5-0.8-0.7-1.6-0.7-2.5
			C60.8,79.5,60.8,76.2,60.8,72.8z"/>
		<path fill="#FFFFFF" d="M41.9,73.1c0,3.1-0.1,6.1,0,9.2c0.1,1.9-0.6,3.3-1.6,4.7c-3.1,4-6.2,8.1-9.9,11.5
			c-0.1,0.1-0.3,0.3-0.4,0.4c-1.2,0.7-2.5,2.1-4,1.4c-1.5-0.7-1-2.5-0.9-3.8c0.5-6.3,2.5-12.2,4.7-18.1c1.8-4.9,3.9-9.8,5.9-14.7
			c1.2-2.9,1.4-3,4.5-2.9c1.3,0,1.8,0.5,1.8,1.8C41.9,66,41.9,69.5,41.9,73.1z"/>
		<path fill="#FFFFFF" d="M60.8,44.9c0-0.4,0-0.6,0-0.8c0-4,0.4-4.4,4.5-3.7c1,0.2,1,0.5,0.6,1.3c-1.2,2.5-2.3,5.1-3.5,7.6
			c-0.1,0.3-0.2,0.7-0.6,0.6c-0.4-0.1-0.6-0.5-0.7-0.9C60.6,47.6,60.9,46.2,60.8,44.9z"/>
		<path fill="#FFFFFF" d="M40.7,50.1c-1.2-2.7-2.4-5.3-3.6-8c-0.1-0.2-0.2-0.7-0.1-0.7c1.3-0.7,2.7-0.4,4-0.6c1-0.1,0.9,0.6,0.9,1.3
			c0,1.8,0,3.7,0,5.5C41.9,48.5,41.8,49.5,40.7,50.1z"/>
		<path fill="#FFFFFF" d="M41.9,56.8c0,3.1-0.5,3.5-3.2,2.9c-0.7-0.1-0.9-0.3-0.6-1c0.7-1.6,1.4-3.2,2.2-4.8
			c0.4-0.9,0.9-0.7,1.3,0.1C42.1,54.9,41.8,55.9,41.9,56.8z"/>
		<path fill="#FFFFFF" d="M62.2,59.3c-1,0.2-1.5-0.1-1.4-1.3c0.1-1.3-0.2-2.7,0.3-4c0.1-0.3,0.3-0.8,0.8-0.7c0.2,0,0.5,0.4,0.6,0.7
			c0.5,0.9,0.9,1.8,1.3,2.7C65,59,64.8,59.2,62.2,59.3z"/>
	</g>
</g>
</svg>
