<svg xmlns="http://www.w3.org/2000/svg" width="473.76" height="130.002" viewBox="-68.5 434.25 473.76 130.002" enable-background="new -68.5 434.25 473.76 130.002"><linearGradient id="a" gradientUnits="userSpaceOnUse" x1="-108.084" y1="-4653.643" x2="-91.538" y2="-4675.306" gradientTransform="matrix(1 0 0 -1 44.88 -4216.395)"><stop offset=".006" stop-color="#457DC7"/><stop offset=".994" stop-color="#3C548E"/></linearGradient><path fill="url(#a)" d="M-66.399 460.15c-1 0-1.801-.8-1.801-1.8v-21.9c0-1 .802-1.8 1.802-1.8h21.898c1 0 1.8.8 1.8 1.8v21.9c0 1-.8 1.8-1.8 1.8h-21.899z"/><linearGradient id="b" gradientUnits="userSpaceOnUse" x1="-112.55" y1="-4657.051" x2="-96.001" y2="-4678.718" gradientTransform="matrix(1 0 0 -1 44.88 -4216.395)"><stop offset=".006" stop-color="#426EB2"/><stop offset=".994" stop-color="#457DC7"/></linearGradient><path fill="url(#b)" d="M-66.399 460.15h21.899c1 0 1.8-.8 1.8-1.8v-4h-25.5v4c0 1.001.801 1.8 1.801 1.8z"/><path fill="#27437C" d="M-44.599 434.95c.898 0 1.5.7 1.5 1.5v21.9c0 .8-.7 1.5-1.5 1.5h-21.8c-.9 0-1.5-.7-1.5-1.5v-21.9c0-.8.698-1.5 1.5-1.5h21.8m0-.599h-21.8c-1.2 0-2.101.899-2.101 2.1v21.9c0 1.1.9 2 2.102 2h21.898c1.102 0 2.102-.9 2.102-2.101v-21.8c-.101-1.2-1.001-2.099-2.201-2.099z"/><linearGradient id="c" gradientUnits="userSpaceOnUse" x1="-98.73" y1="-4661.704" x2="-98.73" y2="-4674.471" gradientTransform="matrix(1 0 0 -1 44.88 -4216.395)"><stop offset="0" stop-color="#FCFCFC"/><stop offset="1" stop-color="#D4D4D4"/></linearGradient><path fill="url(#c)" d="M-51.399 442.052h2.399v-3.2h-2.7c-2.199 0-3.8 1.8-3.8 4.5v2h-3.3v3.2h3.3v9.8h3.3v-9.8h3.301v-3.2h-3.301v-2.7c-.099-.502.5-.601.801-.6z"/><linearGradient id="d" gradientUnits="userSpaceOnUse" x1="-30.74" y1="-4650.165" x2="-9.953" y2="-4677.381" gradientTransform="matrix(1 0 0 -1 44.88 -4216.395)"><stop offset=".006" stop-color="#2AA1DE"/><stop offset=".994" stop-color="#2A81C4"/></linearGradient><path fill="url(#d)" d="M13.601 460.15c-1 0-1.802-.8-1.802-1.8v-21.9c0-1 .802-1.8 1.802-1.8h21.9c1 0 1.8.8 1.8 1.8v21.9c0 1-.8 1.8-1.8 1.8h-21.9z"/><linearGradient id="e" gradientUnits="userSpaceOnUse" x1="341.269" y1="-2502.361" x2="341.269" y2="-2535.114" gradientTransform="matrix(1 0 0 -1 -16.72 -2074.5)"><stop offset=".006" stop-color="#6BA1DE"/><stop offset=".994" stop-color="#4070BA"/></linearGradient><path fill="url(#e)" d="M313.6 460.15c-1 0-1.801-.8-1.801-1.8v-21.9c0-1 .801-1.8 1.801-1.8h21.9c1 0 1.801.8 1.801 1.8v21.9c0 1-.801 1.8-1.801 1.8h-21.9z"/><path fill="#136FA8" d="M35.401 434.95c.8 0 1.5.7 1.5 1.5v21.9c0 .899-.7 1.5-1.5 1.5h-21.8c-.802 0-1.5-.7-1.5-1.5v-21.9c0-.9.698-1.5 1.5-1.5h21.8m0-.599h-21.8c-1.2 0-2.101.899-2.101 2.1v21.9c0 1.1.9 2.1 2.102 2.1h21.899c1.102 0 2.102-.898 2.102-2.1v-21.9c-.102-1.201-1.002-2.1-2.202-2.1z"/><g fill="#fff"><path d="M17.701 443.95h3.2v11.4h-3.2v-11.4zm13 .901c-1-.7-2.3-.9-3.6-.4l-1.301.4v-.9h-3.199v11.4h3.199v-7.101l2.302-.8c.3-.1.6-.1.698 0 .102.1.2.3.2.7v7.2h3.2v-7.2c.1-1.4-.499-2.598-1.499-3.299z"/><circle cx="19.3" cy="440.75" r="2.2"/></g><linearGradient id="f" gradientUnits="userSpaceOnUse" x1="9.249" y1="-4651.982" x2="30.09" y2="-4675.507" gradientTransform="matrix(1 0 0 -1 44.88 -4216.395)"><stop offset=".006" stop-color="#78E0F9"/><stop offset=".994" stop-color="#5FC2F9"/></linearGradient><path fill="url(#f)" d="M53.601 460.052c-1 0-1.802-.801-1.802-1.801v-21.8c0-1 .802-1.8 1.802-1.8h21.9c1 0 1.8.8 1.8 1.8v21.9c0 1-.8 1.8-1.8 1.8-.1-.001-21.9-.099-21.9-.099z"/><path fill="#38ADE0" d="M75.401 434.95c.8 0 1.5.7 1.5 1.5v21.9c0 .899-.7 1.5-1.5 1.5h-21.8c-.802 0-1.5-.7-1.5-1.5v-21.9c0-.8.698-1.5 1.5-1.5h21.8m0-.599h-21.8c-1.101 0-2.101.899-2.101 2.1v21.9c0 1.1.9 2.1 2.102 2.1h21.8c1.1 0 2.1-.898 2.1-2.1v-21.9c-.001-1.201-.901-2.1-2.101-2.1z"/><path fill="#fff" d="M74.501 446.851c-.7.1-1.7 0-2.2-.2 1.102-.101 1.802-.601 2.102-1.3-.4.199-1.602.5-2.3.3l-.102-.4c-.5-1.899-2.3-3.399-4.1-3.2l.5-.199c.2-.101 1.398-.301 1.2-.7-.2-.4-1.602.3-1.9.399.4-.1 1-.399 1-.8-.6.101-1.1.3-1.5.7.2-.2.3-.4.3-.6-1.5.899-2.398 2.899-3 4.699-.6-.5-1-1-1.5-1.199-1.2-.7-2.7-1.301-5-2.2-.1.8.4 1.8 1.7 2.5-.3 0-.8 0-1.2.1.2.9.7 1.601 2.2 1.9-.7 0-1 .2-1.3.5.3.6 1.1 1.3 2.398 1.2-1.5.6-.6 1.8.602 1.699-2.102 2.101-5.3 2-7.2.2 4.9 6.7 15.6 4 17.1-2.5 1.1 0 1.8-.5 2.2-.899z"/><linearGradient id="g" gradientUnits="userSpaceOnUse" x1="89.249" y1="-4651.982" x2="110.09" y2="-4675.508" gradientTransform="matrix(1 0 0 -1 44.88 -4216.395)"><stop offset=".006" stop-color="#fa0"/><stop offset=".994" stop-color="#FF8000"/></linearGradient><path fill="url(#g)" d="M133.601 460.052c-1 0-1.802-.801-1.802-1.801v-21.8c0-1 .802-1.8 1.802-1.8h21.899c1 0 1.8.8 1.8 1.8v21.9c0 1-.8 1.8-1.8 1.8-.099-.001-21.899-.099-21.899-.099z"/><path fill="#D95700" d="M155.401 434.95c.8 0 1.5.7 1.5 1.5v21.9c0 .899-.7 1.5-1.5 1.5h-21.9c-.8 0-1.5-.7-1.5-1.5v-21.9c0-.8.7-1.5 1.5-1.5h21.9m0-.599h-21.9c-1.1 0-2.1.899-2.1 2.1v21.9c0 1.1.898 2.1 2.1 2.1h21.9c1.1 0 2.1-.898 2.1-2.1v-21.9c0-1.201-.9-2.1-2.1-2.1z"/><path fill="#fff" d="M139.001 450.851c-1.2 0-2.1 1-2.1 2.1 0 1.2 1 2.1 2.1 2.1 1.2 0 2.102-1 2.102-2.1.098-1.1-.902-2.1-2.102-2.1zm-2.1-6.299v3.1c2 0 3.898.8 5.3 2.2 1.402 1.399 2.2 3.3 2.2 5.3h3.1c0-5.902-4.8-10.6-10.6-10.6zm0-5.402v3.1c7.1 0 12.898 5.8 12.898 12.9h3.102c0-8.9-7.2-16-16-16z"/><linearGradient id="h" gradientUnits="userSpaceOnUse" x1="137.974" y1="2308.104" x2="137.88" y2="2280.918" gradientTransform="translate(53.16 -1848.166)"><stop offset=".006" stop-color="#CF9633"/><stop offset=".994" stop-color="#D6B500"/></linearGradient><path fill="url(#h)" d="M210.401 442.15s-3.102 4.3-9.102 3.5v-9.3c0-1-.8-1.801-1.8-1.801h-25.898c-1 0-1.802.801-1.802 1.801v21.899c0 1 .802 1.8 1.802 1.8h25.899c1 0 1.8-.8 1.8-1.8v-4.7c2.901-.399 7.901-2.399 9.101-11.399z"/><path fill="#BF7A16" d="M199.501 460.351h-25.9c-1.101 0-2.101-.9-2.101-2.101v-21.899c0-1.101.9-2.101 2.102-2.101h25.898c1.102 0 2.102.9 2.102 2.101v9c.398.1.898.1 1.3.1 4.898 0 7.398-3.5 7.398-3.5.102-.1.2-.1.302-.1.1 0 .198.199.198.3-1.198 9-6.1 11.2-9.1 11.7v4.5c-.199 1.099-1.099 2-2.199 2zm-25.9-25.5c-.9 0-1.602.699-1.602 1.6v21.9c0 .899.7 1.6 1.602 1.6h25.899c.9 0 1.602-.699 1.602-1.6v-4.7c0-.101.1-.2.198-.2 2.7-.4 7.4-2.3 8.802-10.4-1 1.101-3.4 3-7.2 3-.5 0-1 0-1.602-.1-.1 0-.198-.1-.198-.2v-9.399c0-.9-.7-1.601-1.602-1.601l-25.899.1z"/><path fill="#fff" d="M177.401 445.75h18.6v2.9h-18.6v-2.9zm0 6.2h18.6v2.9h-18.6v-2.9zm0-12.3h18.6v2.899h-18.6v-2.899z"/><path fill="#F58A1F" d="M248 446.75c-1.398-3.7-5.398-5.5-9.1-4.2h-.1l.102.101c.6 1.7-.201 3.6-1.9 4.2-.801.3-1.6.199-2.301 0-.5 1.5-.5 3.199.101 4.8 1.399 3.7 5.399 5.5 9.102 4.2 3.496-1.401 5.397-5.5 4.096-9.101z"/><path fill="#00578E" d="M240.1 445.95c-1.801.7-2.699 2.6-2 4.4.699 1.8 2.602 2.699 4.398 2 1.799-.7 2.701-2.601 2-4.4-.598-1.7-2.598-2.7-4.398-2zm16.3-6.2c0-.3-.102-.6-.301-.8s-.5-.3-.801-.3-.6.1-.801.3l-2.498 2.4c-.1-.2-.301-.4-.5-.601l2.4-2.399c.197-.2.299-.5.299-.801 0-.3-.102-.6-.299-.8-.201-.2-.5-.3-.803-.3-.299 0-.6.101-.799.3l-2.301 2.4-.6-.5 2.398-2.4c.199-.2.299-.5.299-.8s-.1-.6-.299-.8c-.201-.2-.5-.3-.801-.3s-.6.1-.801.3l-2.896 2.7c-3.201-1.601-7-2-10.601-.601l-1 .4-7-1.4 3.7 3.601c-.3.2-.5.5-.8.8l-3.7-3.6 1.5 6.899c-1.5 3.101-1.8 6.8-.5 10.3.2.5.398 1 .7 1.5l-2.802 2.8c-.198.2-.3.5-.3.801 0 .3.102.6.3.8.2.2.5.3.802.3.3 0 .6-.1.8-.3l2.399-2.4.5.601-2.3 2.399c-.2.199-.3.5-.3.8 0 .301.1.601.3.801.2.199.5.3.8.3.302 0 .602-.101.802-.3l2.397-2.4.603.5-2.399 2.4c-.201.199-.301.5-.301.8s.1.601.301.8c.199.2.5.301.799.301.301 0 .603-.101.801-.301l2.8-2.9c3.1 1.5 6.799 1.801 10.299.5 1-.399 1.801-.8 2.699-1.399l1.102.8c.199.101.199.601-.102 1l-.301.4c-.199.199-.301.5-.199.8 0 .3.199.601.398.8.201.2.5.301.801.2.301 0 .602-.2.801-.399l.4-.4c1-1.301.5-3-.6-3.9l-.701-.5c.898-.8 1.701-1.8 2.398-2.8l.602.5c.201.101.201.601-.102 1l-.299.399c-.201.2-.301.5-.201.801 0 .3.201.6.4.8s.5.3.801.2c.299 0 .602-.2.799-.4l.4-.5c1-1.3.5-3-.602-3.899l-.898-.7c1.301-3 1.4-6.4.201-9.7l-.5-1.2 2.799-2.9c.309-.202.408-.502.408-.803zm-23.799 12.7c-1.802-4.8.698-10.2 5.499-12 4.801-1.8 10.199.7 12 5.5s-.699 10.2-5.5 12c-4.899 1.8-10.199-.7-11.999-5.5z"/><linearGradient id="i" gradientUnits="userSpaceOnUse" x1="228.197" y1="-4650.899" x2="251.034" y2="-4676.678" gradientTransform="matrix(1 0 0 -1 44.88 -4216.395)"><stop offset=".006" stop-color="#E8EBE8"/><stop offset=".336" stop-color="#E4E7E4"/><stop offset=".667" stop-color="#D9DBD9"/><stop offset=".983" stop-color="#C8C8C8"/></linearGradient><path fill="url(#i)" d="M273.6 460.15c-1 0-1.801-.8-1.801-1.8v-21.9c0-1 .801-1.8 1.801-1.8h21.8c1 0 1.801.8 1.801 1.8v21.8c0 1-.801 1.8-1.801 1.8 0 .002-21.8.002-21.8.1z"/><path fill="#A5A5A5" d="M295.4 434.95c.898 0 1.5.7 1.5 1.5v21.8c0 .8-.699 1.5-1.5 1.5h-21.8c-.801 0-1.5-.7-1.5-1.5v-21.8c0-.9.699-1.5 1.5-1.5h21.8m0-.599h-21.8c-1.199 0-2.1 1-2.1 2.1v21.8c0 1.101.9 2.101 2.1 2.101h21.8c1.1 0 2.1-.9 2.1-2.101v-21.8c0-1.1-.9-2.1-2.1-2.1z"/><path fill="#fff" d="M274.6 450.552c0 2.699 3.5 4.898 7.898 4.898 4.301 0 7.9-2.2 7.9-4.898 0-2.7-3.5-4.9-7.9-4.9-4.398-.001-7.898 2.199-7.898 4.9"/><path fill="#E6162D" d="M282.6 455.052c-3.801.398-7.199-1.4-7.398-3.9-.301-2.5 2.699-4.9 6.5-5.3 3.799-.4 7.199 1.399 7.398 3.899.3 2.6-2.6 4.899-6.5 5.301m7.701-8.402c-.301-.101-.602-.2-.398-.601.398-.899.398-1.699 0-2.3-.803-1.1-2.803-1-5.201 0 0 0-.699.3-.602-.3.4-1.2.303-2.2-.299-2.7-1.301-1.3-4.701 0-7.602 3-2.199 2.2-3.5 4.5-3.5 6.5 0 3.8 4.898 6.2 9.701 6.2 6.299 0 10.5-3.7 10.5-6.6.2-1.797-1.199-2.797-2.599-3.199"/><path fill="#f93" d="M294.5 439.65c-1.5-1.7-3.799-2.3-5.898-1.9-.5.101-.801.601-.699 1.101.1.5.6.8 1.1.699 1.5-.3 3.102.101 4.201 1.301 1.1 1.199 1.398 2.8.898 4.3-.102.5.102 1 .602 1.1.5.2 1-.1 1.1-.6.696-2.001.296-4.3-1.304-6.001m-2.299 2.1c-.701-.8-1.801-1.1-2.9-.899-.398.1-.699.5-.6.899.1.4.5.7.898.601.5-.101 1 0 1.398.399.4.4.5 1 .301 1.4-.1.399.102.8.5 1 .4.1.801-.101 1-.5.302-1 .102-2.098-.597-2.9"/><path d="M282.9 450.45c-.102.2-.4.3-.699.2-.201-.101-.301-.4-.201-.601.102-.199.4-.3.602-.199.298.1.398.4.298.6m-1.3 1.602c-.398.6-1.199.899-1.801.6-.6-.3-.801-1-.398-1.5.398-.6 1.1-.8 1.699-.6.701.198.9.898.5 1.5m1.4-4.201c-1.799-.5-3.898.399-4.699 2-.801 1.6 0 3.5 1.801 4.1 1.898.601 4.199-.3 5-2.1.798-1.701-.202-3.5-2.102-4"/><path fill="#185CAD" d="M335.4 434.95c.801 0 1.5.7 1.5 1.5v21.9c0 .899-.699 1.5-1.5 1.5h-21.898c-.9 0-1.5-.7-1.5-1.5v-21.9c0-.9.699-1.5 1.5-1.5h21.898m0-.599h-21.898c-1.102 0-2.102.899-2.102 2.1v21.9c0 1.1.898 2.1 2.102 2.1h21.898c1.102 0 2.102-.898 2.102-2.1v-21.9c0-1.201-.902-2.1-2.102-2.1z"/><path fill="#fff" d="M322.301 449.851v-.9c0-.7.199-1.4.5-1.9.299-.5.898-1.1 1.699-1.699.801-.601 1.301-1 1.6-1.4.303-.4.4-.8.4-1.2 0-.5-.199-.899-.6-1.1-.4-.3-.9-.4-1.5-.4-1.102 0-2.5.4-3.9 1.101l-1.301-2.5c1.701-1 3.5-1.4 5.398-1.4 1.602 0 2.803.4 3.803 1.1.898.801 1.398 1.801 1.398 3 0 .801-.199 1.601-.6 2.2-.4.601-1.102 1.3-2.199 2.101-.701.5-1.201 1-1.4 1.2-.199.3-.301.699-.301 1.1v.7h-2.997v-.003zm-.401 3.899c0-.6.199-1.1.5-1.5.301-.399.801-.5 1.5-.5.602 0 1.102.2 1.5.5s.5.8.5 1.4c0 .6-.199 1.1-.5 1.399-.398.301-.801.5-1.5.5-.602 0-1.102-.199-1.5-.5-.3-.198-.5-.599-.5-1.299z"/><linearGradient id="j" gradientUnits="userSpaceOnUse" x1="-1078.113" y1="2967.918" x2="-1073.959" y2="2972.606" gradientTransform="matrix(5.502 0 0 5.502 6284.508 -15894.81)"><stop offset=".006" stop-color="#E8EBE8"/><stop offset=".336" stop-color="#E4E7E4"/><stop offset=".667" stop-color="#D9DBD9"/><stop offset=".983" stop-color="#C8C8C8"/></linearGradient><path fill="url(#j)" d="M353.1 460.15c-1 0-1.801-.8-1.801-1.8v-21.9c0-1 .801-1.8 1.801-1.8h21.8c1 0 1.801.8 1.801 1.8v21.8c0 1-.801 1.8-1.801 1.8 0 .002-21.8.002-21.8.1z"/><path fill="#A5A5A5" d="M374.9 434.95c.898 0 1.5.7 1.5 1.5v21.8c0 .8-.699 1.5-1.5 1.5h-21.8c-.801 0-1.5-.7-1.5-1.5v-21.8c0-.9.699-1.5 1.5-1.5h21.8m0-.599h-21.8c-1.1 0-2.1.899-2.1 2.1v21.8c0 1.101.898 2.101 2.1 2.101h21.8c1.102 0 2.102-.9 2.102-2.101v-21.8c0-1.1-.902-2.1-2.102-2.1z"/><path fill="#848484" d="M368.6 442.65v9.3c0 .8-.699 1.4-1.5 1.4s-1.5-.601-1.5-1.4v-.4h-5.098c-1.5 0-2.801-1.1-2.801-2.5v-.6h-1.199c-.5 0-.801-.6-.801-.6v-1.601s.301-.5.801-.5h1.199v-.3c0-1.4 1.199-2.5 2.801-2.5h5.098v-.3c0-.8.699-1.4 1.5-1.4.902.001 1.5.602 1.5 1.401zm5.902 2.1c0-.5-.5-1-1.102-1h-4.3v2h4.301c.601-.1 1.101-.5 1.101-1zm-1.102 4.101h-4.3v2h4.301c.602 0 1.102-.4 1.102-1-.001-.601-.501-1-1.103-1zm-11.398-1h-8.801v-1.5h8.801v1.5z"/><linearGradient id="k" gradientUnits="userSpaceOnUse" x1="1.22" y1="-1135.887" x2="1.22" y2="-1110.322" gradientTransform="matrix(1 0 0 -1 -16.72 -675.5)"><stop offset="0" stop-color="#E52D27"/><stop offset="1" stop-color="#BF171D"/></linearGradient><path fill="url(#k)" d="M-2.899 440.15s-.302-2.5-1-3.601c-1-1.399-2.101-1.399-2.601-1.5-3.6-.3-9.1-.3-9.1-.3s-5.5 0-9.102.4c-.5.1-1.6.1-2.6 1.5-.8 1.1-1 3.6-1 3.6s-.199 2.9-.199 5.9v2.8c0 2.9.3 5.9.3 5.9s.302 2.5 1 3.6c1 1.4 2.302 1.4 2.9 1.5 2.1.3 8.8.4 8.8.4s5.5 0 9.102-.4c.5-.1 1.6-.1 2.6-1.5.8-1.1 1-3.6 1-3.6s.3-2.9.3-5.9v-2.8c-.1-2.999-.4-5.999-.4-5.999z"/><path fill="#fff" d="M-19.399 451.95l9.6-4.9-9.6-5v9.9z"/><path opacity=".12" fill="#420000" enable-background="new" d="M-19.399 441.95l8.5 5.6 1.198-.5-9.698-5.1z"/><path fill="#DF4A32" d="M93.601 460.052c-1 0-1.802-.801-1.802-1.801v-21.8c0-1 .802-1.8 1.802-1.8h21.8c1 0 1.8.8 1.8 1.8v21.8c0 1-.8 1.801-1.8 1.801h-21.8z"/><path fill="#CC3627" d="M115.401 434.95c.8 0 1.5.7 1.5 1.5v21.8c0 .8-.7 1.5-1.5 1.5h-21.8c-.802 0-1.5-.7-1.5-1.5v-21.8c0-.8.698-1.5 1.5-1.5h21.8m0-.599h-21.8c-1.101 0-2.101.899-2.101 2.1v21.8c0 1.101.9 2.101 2.102 2.101h21.8c1.1 0 2.1-.9 2.1-2.101v-21.8c-.001-1.201-.901-2.1-2.101-2.1z"/><path fill="#fff" d="M107.501 437.65h-5.1c-.7 0-1.4.1-2.2.2-.8.199-1.5.6-2.3 1.199-1.101 1.101-1.601 2.2-1.601 3.5 0 1.101.4 2 1.102 2.801.7.899 1.8 1.3 3.1 1.3.3 0 .5 0 .8-.101 0 .101-.1.301-.198.5-.102.2-.102.301-.102.601 0 .399.102.7.3 1 .102.3.302.6.5.8-.6 0-1.3.1-2.3.2-.898.2-1.8.5-2.6 1-.7.5-1.2 1-1.5 1.6-.3.601-.4 1.101-.4 1.601 0 1 .4 1.899 1.3 2.6.9.801 2.2 1.2 4 1.2 2.102 0 3.802-.601 4.9-1.601s1.6-2.1 1.6-3.399c0-.9-.198-1.601-.6-2.2-.4-.5-.9-1.1-1.4-1.5l-.898-.7c-.102-.1-.3-.3-.4-.5-.199-.2-.199-.399-.199-.7 0-.3.101-.5.199-.699l.4-.601.8-.7c.2-.199.4-.5.601-.8.399-.6.601-1.3.601-2.3 0-.5-.101-1-.2-1.4-.1-.399-.3-.699-.5-1-.2-.3-.399-.6-.6-.8-.2-.2-.4-.3-.5-.5h1.6l1.795-.601zm-2.8 14.402c.4.5.6 1.1.6 1.8 0 .8-.3 1.5-.898 2-.602.5-1.602.8-2.8.8-1.302 0-2.4-.3-3.2-.899-.8-.601-1.2-1.399-1.2-2.3 0-.5.1-.899.3-1.2.2-.3.4-.6.602-.8.198-.2.5-.399.698-.5.2-.1.4-.2.602-.2.6-.2 1.1-.3 1.6-.399.5-.101.9-.101 1-.101h.602c.894.697 1.594 1.299 2.094 1.799zm-.901-7.802c-.1.4-.198.7-.398 1-.4.5-1 .7-1.7.7-.5 0-1-.2-1.4-.5-.398-.3-.8-.7-1-1.2-.5-1-.8-2-.8-3 0-.7.2-1.399.602-2 .5-.6 1-.8 1.698-.899.5 0 1 .199 1.4.5.4.3.7.699 1 1.199.5 1.101.8 2.101.8 3.101-.101.499-.101.799-.202 1.099zm9.401 2.2v-2.9h-1.4v2.9h-2.899v1.4h2.898v2.899h1.4v-2.899h2.9v-1.4h-2.899z"/><path fill="#AAAAA7" d="M-65.978 506.052c-1.4 0-2.521-1.12-2.521-2.521v-30.66c0-1.398 1.123-2.519 2.522-2.519h30.658c1.4 0 2.52 1.12 2.52 2.519v30.66c0 1.399-1.12 2.521-2.52 2.521h-30.659zm39.879 0c-1.4 0-2.521-1.12-2.521-2.521v-30.66c0-1.398 1.123-2.519 2.522-2.519h30.659c1.4 0 2.52 1.12 2.52 2.519v30.66c0 1.399-1.12 2.521-2.52 2.521h-30.66zm40.121 0c-1.4 0-2.521-1.12-2.521-2.521v-30.66c0-1.398 1.123-2.519 2.522-2.519h30.658c1.4 0 2.52 1.12 2.52 2.519v30.66c0 1.399-1.12 2.521-2.52 2.521h-30.659zm40 0c-1.4 0-2.521-1.12-2.521-2.521v-30.66c0-1.398 1.123-2.519 2.522-2.519h30.658c1.4 0 2.52 1.12 2.52 2.519v30.66c0 1.399-1.12 2.521-2.52 2.521h-30.659zm40 0c-1.4 0-2.521-1.12-2.521-2.521v-30.66c0-1.398 1.123-2.519 2.522-2.519h30.658c1.4 0 2.52 1.12 2.52 2.519v30.66c0 1.399-1.12 2.521-2.52 2.521h-30.659zm39.9 0c-1.4 0-2.521-1.12-2.521-2.521v-30.66c0-1.398 1.123-2.519 2.522-2.519h30.658c1.4 0 2.52 1.12 2.52 2.519v30.66c0 1.399-1.12 2.521-2.52 2.521h-30.659zm140.099 0c-1.4 0-2.521-1.12-2.521-2.521v-30.66c0-1.398 1.123-2.519 2.523-2.519h30.656c1.4 0 2.521 1.119 2.521 2.519v30.66c0 1.399-1.119 2.521-2.521 2.521h-30.658zm39.901 0c-1.4 0-2.521-1.12-2.521-2.521v-30.66c0-1.398 1.123-2.519 2.523-2.519h30.656c1.4 0 2.521 1.119 2.521 2.519v30.66c0 1.399-1.121 2.521-2.521 2.521h-30.658zm39.599 0c-1.4 0-2.521-1.12-2.521-2.521v-30.66c0-1.398 1.123-2.519 2.521-2.519h30.658c1.4 0 2.52 1.119 2.52 2.519v30.66c0 1.399-1.119 2.521-2.52 2.521h-30.658z"/><path fill="#fff" d="M-48.399 482.151h2.399v-3.201h-2.7c-2.199 0-3.8 1.801-3.8 4.5v2h-3.3v3.201h3.3v9.799h3.3v-9.799h3.301v-3.201h-3.301v-2.699c-.099-.5.5-.6.801-.6z"/><g fill="#fff"><path d="M22.701 484.052h3.2v11.398h-3.2v-11.398zm13 .898c-1-.699-2.3-.898-3.6-.398l-1.301.398v-.898h-3.199v11.398h3.199v-7.1l2.302-.801c.3-.101.6-.101.698 0 .102.102.2.301.2.7v7.199h3.2v-7.199c.1-1.398-.499-2.598-1.499-3.299z"/><circle cx="24.3" cy="480.85" r="2.2"/></g><g fill="#fff"><path d="M32.101 539.651h3.2v11.398h-3.2v-11.398zm13 .899c-1-.699-2.3-.898-3.6-.398l-1.301.398v-.898h-3.199v11.398h3.199v-7.1l2.302-.801c.3-.101.6-.101.698 0 .102.102.2.301.2.7v7.199h3.2v-7.199c.1-1.399-.499-2.598-1.499-3.299z"/><circle cx="33.7" cy="536.45" r="2.2"/></g><path fill="#fff" d="M79.001 487.858c-.7.102-1.7 0-2.2-.199 1.102-.1 1.802-.6 2.102-1.301-.4.201-1.602.5-2.3.301l-.102-.399c-.5-1.9-2.3-3.4-4.1-3.199l.5-.201c.2-.1 1.398-.299 1.2-.699-.2-.398-1.602.301-1.9.4.4-.102 1-.4 1-.801-.6.1-1.1.301-1.5.699.2-.199.3-.398.3-.601-1.5.898-2.398 2.898-3 4.7-.6-.5-1-1-1.5-1.2-1.2-.699-2.7-1.3-5-2.199-.1.8.4 1.8 1.7 2.5-.3 0-.8 0-1.2.101.2.899.7 1.6 2.2 1.899-.7 0-1 .199-1.3.5.3.6 1.1 1.3 2.398 1.199-1.5.601-.6 1.801.602 1.7-2.102 2.101-5.3 2-7.2.198 4.9 6.699 15.6 4 17.1-2.5 1.1.003 1.8-.497 2.2-.898zm65.35 4.192c-1.2 0-2.1 1-2.1 2.103 0 1.199 1 2.101 2.1 2.101 1.2 0 2.102-1 2.102-2.101.098-1.103-.902-2.103-2.102-2.103zm-2.1-6.299v3.101c2 0 3.898.801 5.3 2.198 1.4 1.4 2.2 3.302 2.2 5.302h3.1c0-5.902-4.8-10.601-10.6-10.601zm0-5.4v3.1c7.1 0 12.898 5.801 12.898 12.9h3.102c0-8.901-7.2-16-16-16z"/><path fill="#AAAAA7" d="M216.714 478.841s-3.368 4.67-9.883 3.801v-10.1c0-1.086-.868-1.953-1.954-1.953h-31.121c-1.086 0-1.956.867-1.956 1.953v31.556c0 1.086.87 1.956 1.956 1.956h31.122c1.086 0 1.954-.87 1.954-1.956v-12.877c3.149-.437 8.579-2.608 9.882-12.38z"/><path fill="#fff" d="M180.026 486.851h18.6v2.899h-18.6v-2.899zm0 6.201h18.6v2.898h-18.6v-2.898zm0-12.301h18.6v2.899h-18.6v-2.899zM231.5 541.35h18.6v2.899h-18.6v-2.899zm0 6.201h18.6v2.898h-18.6v-2.898zm0-12.301h18.6v2.899h-18.6v-2.899z"/><path fill="#AAAAA7" d="M262.4 476.838c0-.359-.123-.721-.363-.961-.236-.239-.6-.358-.959-.358s-.721.119-.961.358l-3.002 2.882c-.119-.239-.359-.479-.6-.722l2.881-2.881c.238-.239.361-.601.361-.961s-.123-.721-.361-.961c-.24-.239-.602-.36-.963-.36-.359 0-.721.121-.959.36l-2.762 2.881-.721-.601 2.883-2.881c.24-.238.359-.6.359-.96 0-.359-.119-.721-.359-.96-.238-.24-.6-.36-.959-.36s-.721.121-.961.36l-3.482 3.24c-3.842-1.921-8.404-2.4-12.727-.721l-1.201.479-8.403-1.68 4.442 4.323c-.359.24-.601.601-.961.962l-4.441-4.323 1.801 8.284c-1.801 3.723-2.161 8.164-.601 12.366.24.6.479 1.2.841 1.801l-3.364 3.362c-.237.239-.358.602-.358.96 0 .36.122.722.36.962.24.239.6.359.962.359.36 0 .721-.12.961-.359l2.878-2.882.602.72-2.761 2.882c-.24.239-.36.601-.36.962 0 .358.12.72.36.959.24.241.6.361.96.361.361 0 .723-.12.963-.361l2.879-2.881.723.601-2.882 2.882c-.239.24-.36.6-.36.961 0 .359.121.721.36.96.239.241.599.359.959.359s.724-.119.96-.36l3.364-3.479c3.721 1.801 8.165 2.159 12.366.601 1.199-.48 2.16-.962 3.238-1.682l1.324.96c.24.122.24.724-.123 1.201l-.359.479c-.24.24-.359.6-.24.961 0 .359.24.721.48.96.24.24.602.36.961.24.359 0 .723-.24.959-.479l.48-.479c1.201-1.561.602-3.602-.719-4.683l-.842-.601c1.078-.959 2.041-2.159 2.879-3.36l.725.601c.24.12.24.721-.123 1.201l-.359.479c-.24.238-.359.6-.24.96 0 .36.24.72.48.961.24.239.6.358.961.239.359 0 .721-.239.959-.48l.48-.601c1.201-1.56.602-3.603-.721-4.682l-1.08-.844c1.562-3.602 1.684-7.683.24-11.646l-.6-1.439 3.361-3.48c.364-.241.485-.601.485-.961zm-28.575 15.248c-2.162-5.763.84-12.247 6.603-14.407 5.764-2.16 12.246.841 14.406 6.604 2.162 5.763-.838 12.247-6.604 14.407-5.88 2.16-12.243-.841-14.405-6.604zm13.568 4.081c4.201-1.679 6.48-6.604 4.922-10.925-1.682-4.44-6.484-6.604-10.926-5.042h-.121l.123.119c.719 2.04-.24 4.323-2.283 5.042-.959.361-1.919.241-2.76 0-.601 1.801-.601 3.844.119 5.764 1.679 4.441 6.482 6.604 10.926 5.042zm-4.565-11.886c2.162-.841 4.564.36 5.283 2.401.84 2.161-.24 4.441-2.402 5.281-2.16.842-4.441-.238-5.281-2.4-.84-2.159.24-4.441 2.4-5.282zm31.772 6.37c0 2.699 3.5 4.897 7.898 4.897 4.301 0 7.9-2.198 7.9-4.897 0-2.701-3.5-4.9-7.9-4.9-4.398 0-7.898 2.199-7.898 4.9"/><path fill="#fff" d="M287.6 495.151c-3.801.397-7.199-1.4-7.398-3.9-.301-2.5 2.699-4.898 6.5-5.301 3.799-.398 7.199 1.4 7.398 3.9.3 2.6-2.6 4.901-6.5 5.301m7.701-8.4c-.301-.101-.602-.2-.398-.601.398-.899.398-1.7 0-2.301-.803-1.102-2.803-1-5.201 0 0 0-.699.301-.602-.301.4-1.199.303-2.199-.299-2.699-1.301-1.301-4.701 0-7.602 3-2.199 2.199-3.5 4.5-3.5 6.5 0 3.801 4.898 6.198 9.701 6.198 6.299 0 10.5-3.698 10.5-6.601.2-1.795-1.199-2.795-2.599-3.195m4.201-7c-1.502-1.699-3.801-2.301-5.9-1.899-.5.1-.801.6-.699 1.1.1.5.6.801 1.1.701 1.5-.301 3.102.1 4.201 1.299 1.1 1.201 1.398 2.801.898 4.301-.1.5.102 1 .602 1.102.5.2 1-.102 1.1-.602.698-2.002.296-4.303-1.302-6.002m-2.301 2.1c-.701-.801-1.801-1.101-2.9-.9-.398.103-.699.5-.6.9.1.399.5.699.898.6.5-.1 1 0 1.398.4.4.399.5 1 .301 1.399-.1.399.102.8.5 1 .4.101.801-.101 1-.5.302-.999.102-2.099-.597-2.899m-9.301 8.701c-.102.199-.4.3-.699.199-.201-.101-.301-.399-.201-.601.102-.201.4-.301.602-.2.298.102.398.401.298.602m-1.3 1.599c-.398.6-1.199.898-1.801.6-.6-.301-.801-1-.398-1.5.398-.6 1.1-.801 1.699-.6.701.2.9.901.5 1.5m1.4-4.201c-1.799-.5-3.898.4-4.699 2-.801 1.602 0 3.5 1.801 4.102 1.898.602 4.199-.301 5-2.102.798-1.699-.202-3.5-2.102-4M341.4 551.67c-3.801.397-7.199-1.4-7.398-3.9-.301-2.5 2.699-4.898 6.5-5.301 3.799-.398 7.199 1.4 7.398 3.9.301 2.6-2.599 4.901-6.5 5.301m7.702-8.4c-.301-.101-.602-.2-.398-.601.398-.899.398-1.7 0-2.301-.803-1.102-2.803-1-5.201 0 0 0-.699.301-.602-.301.4-1.199.303-2.199-.299-2.699-1.301-1.301-4.701 0-7.602 3-2.199 2.199-3.5 4.5-3.5 6.5 0 3.801 4.898 6.198 9.701 6.198 6.299 0 10.5-3.698 10.5-6.601.199-1.795-1.199-2.795-2.599-3.195m4.201-7c-1.502-1.699-3.801-2.301-5.9-1.899-.5.1-.801.6-.699 1.1.1.5.6.801 1.1.701 1.5-.301 3.102.1 4.201 1.299 1.1 1.201 1.398 2.801.898 4.301-.1.5.102 1 .602 1.102.5.2 1-.102 1.1-.602.698-2.002.295-4.303-1.302-6.002m-2.301 2.099c-.701-.801-1.801-1.101-2.9-.9-.398.103-.699.5-.6.9.1.399.5.699.898.6.5-.1 1 0 1.398.4.4.399.5 1 .301 1.399-.1.399.102.8.5 1 .4.101.801-.101 1-.5.301-.998.102-2.098-.597-2.899m-9.301 8.701c-.102.199-.4.3-.699.199-.201-.101-.301-.399-.201-.601.102-.201.4-.301.602-.2.298.102.398.401.298.602m-1.301 1.6c-.398.6-1.199.898-1.801.6-.6-.301-.801-1-.398-1.5.398-.6 1.1-.801 1.699-.6.702.199.901.9.5 1.5m1.401-4.201c-1.799-.5-3.898.4-4.699 2-.801 1.602 0 3.5 1.801 4.102 1.898.602 4.199-.301 5-2.102.798-1.699-.202-3.5-2.102-4"/><path fill="#fff" d="M327.301 490.95v-.898c0-.7.199-1.399.5-1.899.299-.5.898-1.101 1.699-1.701.801-.6 1.301-1 1.6-1.397.303-.399.4-.802.4-1.2 0-.5-.199-.899-.6-1.102-.4-.301-.9-.398-1.5-.398-1.102 0-2.5.398-3.9 1.101l-1.301-2.5c1.701-1 3.5-1.398 5.398-1.398 1.602 0 2.803.398 3.803 1.101.898.799 1.398 1.799 1.398 3 0 .799-.201 1.6-.602 2.199-.398.6-1.102 1.301-2.199 2.1-.699.5-1.199 1-1.4 1.201-.197.299-.299.699-.299 1.1v.697h-2.998v-.006h.001zm-.401 3.901c0-.601.199-1.101.5-1.5.301-.4.801-.5 1.5-.5.602 0 1.102.199 1.5.5s.5.801.5 1.399c0 .6-.199 1.101-.5 1.399-.398.3-.801.5-1.5.5-.602 0-1.102-.2-1.5-.5-.3-.199-.5-.597-.5-1.298zM373.6 483.751v9.301c0 .8-.699 1.398-1.5 1.398s-1.5-.601-1.5-1.398v-.399h-5.098c-1.5 0-2.801-1.101-2.801-2.5v-.601h-1.199c-.5 0-.801-.602-.801-.602v-1.6s.301-.5.801-.5h1.199v-.301c0-1.398 1.199-2.5 2.801-2.5h5.098v-.3c0-.801.699-1.399 1.5-1.399.902.001 1.5.6 1.5 1.401zm5.902 2.1c0-.5-.5-1-1.102-1h-4.3v2h4.301c.601-.1 1.101-.5 1.101-1zm-1.102 4.099h-4.3v2h4.301c.602 0 1.102-.398 1.102-1-.001-.599-.501-1-1.103-1zm-11.398-1h-8.801v-1.5h8.801v1.5zM-14.399 493.052l9.6-4.899-9.6-5v9.899zM112.501 479.751h-5.1c-.7 0-1.4.101-2.2.199-.8.2-1.5.602-2.3 1.2-1.102 1.101-1.602 2.199-1.602 3.5 0 1.101.4 2 1.102 2.8.7.899 1.8 1.301 3.1 1.301.3 0 .5 0 .8-.101 0 .101-.1.3-.198.5-.102.2-.102.3-.102.601 0 .399.102.699.3 1 .102.301.302.601.5.801-.6 0-1.3.101-2.3.199-.898.199-1.8.5-2.6 1-.7.5-1.2 1-1.5 1.601-.3.6-.4 1.1-.4 1.6 0 1 .4 1.9 1.3 2.601.9.802 2.2 1.2 4 1.2 2.102 0 3.802-.6 4.9-1.6s1.6-2.101 1.6-3.4c0-.898-.198-1.6-.6-2.198-.4-.5-.9-1.103-1.4-1.5l-.899-.701c-.102-.101-.3-.3-.4-.5-.2-.199-.2-.4-.2-.699 0-.301.102-.5.2-.701l.4-.6.8-.699c.2-.201.4-.5.6-.801.4-.601.602-1.3.602-2.3 0-.5-.102-1-.2-1.399-.1-.4-.3-.701-.5-1-.2-.301-.4-.601-.6-.801-.2-.199-.4-.3-.5-.5h1.6l1.797-.603zm-2.8 14.4c.4.5.6 1.1.6 1.799 0 .801-.3 1.5-.898 2-.602.5-1.602.801-2.8.801-1.302 0-2.4-.301-3.2-.898-.8-.598-1.2-1.399-1.2-2.3 0-.5.1-.899.3-1.2.2-.3.4-.602.602-.8.198-.2.5-.399.698-.5.2-.103.4-.2.602-.2.6-.199 1.1-.3 1.6-.399.5-.101.9-.101 1-.101h.602c.894.699 1.594 1.298 2.094 1.798zm-.901-7.8c-.1.399-.198.7-.398 1-.4.5-1 .699-1.7.699-.5 0-1-.199-1.4-.5-.398-.3-.8-.699-1-1.199-.5-1-.8-2-.8-3 0-.699.2-1.4.602-2 .5-.601 1-.801 1.698-.9.5 0 1 .201 1.4.5.4.301.7.701 1 1.201.5 1.1.8 2.1.8 3.1-.101.499-.101.8-.202 1.099zm9.401 2.201v-2.899h-1.4v2.899h-2.899v1.398h2.898v2.9h1.4v-2.9h2.9v-1.398h-2.899zM144 534.25h-5.1c-.7 0-1.4.101-2.2.199-.8.2-1.5.602-2.3 1.2-1.102 1.101-1.602 2.199-1.602 3.5 0 1.101.4 2 1.102 2.8.7.899 1.8 1.301 3.1 1.301.3 0 .5 0 .8-.101 0 .101-.1.3-.198.5-.102.2-.102.3-.102.601 0 .399.102.699.3 1 .102.301.302.601.5.801-.6 0-1.3.101-2.3.199-.898.199-1.8.5-2.6 1-.7.5-1.2 1-1.5 1.601-.3.6-.4 1.1-.4 1.6 0 1 .4 1.9 1.3 2.601.9.802 2.2 1.2 4 1.2 2.102 0 3.802-.6 4.9-1.6s1.6-2.101 1.6-3.4c0-.898-.198-1.6-.6-2.198-.4-.5-.9-1.103-1.4-1.5l-.899-.701c-.102-.101-.3-.3-.4-.5-.2-.199-.2-.4-.2-.699 0-.301.102-.5.2-.701l.4-.6.8-.699c.2-.201.4-.5.6-.801.4-.601.602-1.3.602-2.3 0-.5-.102-1-.2-1.399-.1-.4-.3-.701-.5-1-.2-.301-.4-.601-.6-.801-.2-.199-.4-.3-.5-.5h1.6l1.797-.603zm-2.8 14.4c.4.5.6 1.1.6 1.799 0 .801-.3 1.5-.898 2-.602.5-1.602.801-2.8.801-1.302 0-2.4-.301-3.2-.898-.8-.598-1.2-1.399-1.2-2.3 0-.5.1-.899.3-1.2.2-.3.4-.602.602-.8.198-.2.5-.399.698-.5.2-.103.4-.2.602-.2.6-.199 1.1-.3 1.6-.399.5-.101.9-.101 1-.101h.602c.894.699 1.594 1.298 2.094 1.798zm-.901-7.8c-.1.399-.198.7-.398 1-.4.5-1 .699-1.7.699-.5 0-1-.199-1.4-.5-.398-.3-.8-.699-1-1.199-.5-1-.8-2-.8-3 0-.699.2-1.4.602-2 .5-.601 1-.801 1.698-.9.5 0 1 .201 1.4.5.4.301.7.701 1 1.201.5 1.1.8 2.1.8 3.1-.101.499-.101.8-.202 1.099zm9.401 2.201v-2.899h-1.4v2.899h-2.899v1.398h2.898v2.9h1.4v-2.9h2.9v-1.398h-2.899zM100.4 536.15c-.7.3-1.5.5-2.2.6.8-.5 1.4-1.3 1.7-2.2-.8.5-1.6.8-2.5 1-.7-.8-1.7-1.3-2.8-1.3-2.2 0-3.9 1.8-3.9 4 0 .3 0 .6.1.9-3.2-.2-6.1-1.801-8-4.2-.3.6-.5 1.3-.5 2 0 1.399.7 2.6 1.7 3.399-.6 0-1.2-.199-1.8-.5v.101c0 2 1.3 3.6 3.1 4-.3.1-.7.1-1 .1-.3 0-.5 0-.7-.1.5 1.6 1.9 2.8 3.6 2.8-1.3 1.1-3 1.7-4.8 1.7-.3 0-.6 0-.9-.101 1.7 1.101 3.8 1.801 6 1.801 7.2 0 11.1-6.2 11.1-11.5v-.5c.6-.5 1.3-1.2 1.8-2zM290.5 541.85c-1.201.4-1.801 1.801-1.4 3 .4 1.2 1.8 1.801 3 1.4 1.199-.4 1.8-1.8 1.4-3-.5-1.3-1.801-1.9-3-1.4zm11-4.3c0-.2-.101-.399-.201-.5-.1-.1-.299-.2-.5-.2-.199 0-.399.101-.5.2l-1.6 1.7-.3-.4 1.601-1.6c.1-.1.199-.3.199-.5s-.1-.4-.199-.5c-.101-.1-.301-.2-.601-.2-.2 0-.399.101-.5.2l-1.601 1.6-.399-.3 1.601-1.6c.1-.101.199-.3.199-.5s-.1-.4-.199-.5c-.101-.101-.301-.2-.5-.2-.201 0-.4.1-.5.2l-1.9 1.899c-2.1-1.1-4.7-1.3-7.2-.399l-.7.3-4.8-.9 2.5 2.5c-.2.2-.399.301-.5.5l-2.5-2.5 1 4.7c-1 2.101-1.2 4.601-.3 7 .1.4.3.7.5 1l-1.9 1.9c-.1.1-.199.3-.199.5s.1.399.199.5c.1.1.301.2.5.2.2 0 .4-.101.5-.2l1.6-1.601.301.4-1.6 1.6c-.101.101-.201.301-.201.5 0 .2.101.4.201.5.1.101.299.2.5.2.199 0 .399-.1.5-.2l1.6-1.6.4.3-1.601 1.7c-.101.1-.2.3-.2.5s.1.4.2.5.3.2.601.2c.199 0 .399-.101.5-.2l1.899-1.9c2.101 1 4.601 1.2 6.899.301.601-.2 1.201-.601 1.801-.9.4.3.699.6.699.6.101.101.201.4 0 .7l-.199.3c-.1.2-.2.4-.2.601s.101.399.3.5c.2.1.4.2.6.2.201 0 .4-.101.5-.301l.301-.3c.699-.8.3-2-.4-2.6 0 0-.199-.2-.5-.4.6-.6 1.2-1.2 1.6-1.899.201.199.4.3.4.3.1.1.2.399 0 .7l-.199.3c-.101.2-.201.399-.201.6s.101.4.301.5c.199.101.4.2.6.2.2 0 .4-.1.5-.3l.301-.3c.699-.801.299-2-.4-2.601 0 0-.301-.2-.6-.5.899-2 1-4.399.199-6.6-.1-.3-.199-.601-.4-.8l1.9-2.5c.197-.2.298-.3.298-.6zm-8 12.4c-3.301 1.2-6.9-.5-8.101-3.7-1.2-3.3.5-6.9 3.7-8.1 3.3-1.2 6.9.5 8.1 3.699 1.2 3.201-.5 6.901-3.699 8.101zm-3.9-10.6c-2.5.9-3.801 3.801-2.9 6.301s3.801 3.8 6.301 2.899c2.5-.899 3.799-3.8 2.899-6.3-1.001-2.5-3.8-3.8-6.3-2.9zm3.199 8.8c-.5.199-1 .3-1.5.3-1.799 0-3.5-1.101-4.1-2.9-.4-1.1-.4-2.3.1-3.3.5-1.1 1.4-1.9 2.5-2.3.5-.2 1-.3 1.5-.3 1.801 0 3.5 1.1 4.101 2.899.799 2.201-.4 4.701-2.601 5.601zM-18.5 543.993l9.678-4.808-9.678-4.936v9.744zM-61.1 537.55h2.5v-3.3h-2.7c-2.3 0-3.9 1.9-3.9 4.6v2h-3.3v3.301h3.3v10h3.3v-10h3.301v-3.2h-3.301v-2.7c0-.601.5-.701.8-.701zM402.6 537.75c0-.5-.5-1-1.1-1h-4.2v2h4.2c.6-.1 1.1-.5 1.1-1zm-1.1 4.1h-4.2v2h4.2c.6 0 1.1-.399 1.1-1 0-.6-.5-1-1.1-1zm-6.2-7.6c-.8 0-1.5.6-1.5 1.4v.3h-5c-1.6 0-2.8 1.1-2.8 2.5v.3h-1.2c-.5 0-.8.5-.8.5v.1h-2.5v1.5h2.5s.3.601.8.601h1.2v.6c0 1.4 1.3 2.5 2.8 2.5h5v.4c0 .8.7 1.399 1.5 1.399s1.5-.6 1.5-1.399v-9.2c0-.901-.6-1.501-1.5-1.501zM183.6 545.949c-1.2 0-2.1 1-2.1 2.103 0 1.199 1 2.101 2.1 2.101 1.2 0 2.102-1 2.102-2.101.098-1.103-.902-2.103-2.102-2.103zM181.5 539.65v3.101c2 0 3.898.801 5.3 2.198 1.4 1.4 2.2 3.302 2.2 5.302h3.1c0-5.901-4.8-10.601-10.6-10.601zM181.5 534.25v3.1c7.1 0 12.898 5.801 12.898 12.9h3.102c0-8.9-7.2-16-16-16z"/></svg>